{"glyphs":{"0":{"ha":875,"x_min":74,"x_max":851,"o":"m 74 242 q 135 577 74 404 q 317 875 197 750 q 576 1000 436 1000 q 777 907 703 1000 q 851 658 851 814 q 785 291 851 469 q 599 -4 719 113 q 339 -121 479 -121 q 141 -17 208 -121 q 74 242 74 86 m 190 213 q 235 4 190 82 q 358 -74 281 -74 q 550 53 458 -74 q 694 356 642 181 q 746 688 746 532 q 706 888 746 814 q 578 963 665 963 q 412 882 489 963 q 289 682 335 801 q 217 438 243 563 q 190 213 190 313 z "},"1":{"ha":507,"x_min":-64,"x_max":440,"o":"m -64 -64 q -19 -67 -36 -67 q 131 -51 42 -67 q 254 434 181 65 q 331 811 328 803 q 171 719 201 719 q 144 728 153 719 q 136 760 136 736 q 271 854 182 783 q 428 1000 360 925 q 440 957 440 989 q 426 877 440 932 q 408 801 411 822 q 197 -42 324 226 q 253 -37 226 -37 q 345 -54 311 -37 q 388 -115 379 -71 q 278 -108 325 -108 q 155 -115 232 -108 q 42 -121 78 -121 q -16 -106 14 -121 q -64 -64 -46 -90 z "},"2":{"ha":776,"x_min":-26,"x_max":694,"o":"m -26 0 q 78 67 -26 67 q 224 47 126 67 q 479 381 363 171 q 596 765 596 592 q 556 914 596 865 q 449 963 515 963 q 309 883 360 963 q 258 682 258 804 q 275 588 258 633 l 268 588 q 194 628 218 600 q 171 711 171 656 q 256 913 171 826 q 471 1000 342 1000 q 632 928 571 1000 q 693 747 693 856 q 628 474 693 618 q 482 233 574 353 q 290 32 390 114 l 329 24 q 589 -19 515 -19 q 694 15 636 -19 q 553 -121 661 -121 q 286 -40 476 -121 q 258 -28 278 -37 q 226 -15 238 -19 q 68 -75 133 -75 q 0 -54 26 -75 q -26 0 -26 -33 m 17 -3 q 32 -28 17 -18 q 67 -37 47 -37 q 171 6 107 -37 q 65 31 100 31 q 28 20 40 31 q 17 -3 17 10 z "},"3":{"ha":708,"x_min":8,"x_max":650,"o":"m 8 76 q 39 181 8 135 q 121 226 69 226 q 146 225 139 226 q 114 171 126 208 q 101 96 101 133 q 142 -25 101 26 q 249 -76 183 -76 q 404 12 335 -76 q 474 233 474 100 q 437 396 474 325 q 319 488 400 467 q 481 633 418 532 q 544 828 544 735 q 508 930 544 897 q 419 963 472 963 q 309 922 357 963 q 261 813 261 881 q 283 719 261 765 q 259 692 276 704 q 228 681 242 681 q 190 715 204 681 q 176 790 176 750 q 256 943 176 886 q 436 1000 335 1000 q 588 953 525 1000 q 650 821 650 907 q 578 626 650 725 q 407 501 506 528 q 565 397 515 474 q 615 233 615 319 q 504 -12 615 97 q 236 -121 393 -121 q 64 -60 119 -121 q 8 76 8 0 z "},"4":{"ha":664,"x_min":-11,"x_max":631,"o":"m -11 307 q 14 365 -11 344 q 194 547 67 428 q 432 783 321 667 q 600 1000 543 900 q 615 964 615 994 q 589 888 615 932 q 489 400 550 724 l 547 400 q 631 408 600 400 q 569 349 606 372 q 506 326 532 326 l 475 326 q 460 243 464 271 q 429 44 446 169 q 413 -121 413 -82 q 306 -56 306 -111 q 344 181 311 -4 q 375 328 346 192 q 314 328 353 328 q 260 329 275 329 q -11 307 96 329 m 111 400 q 251 407 161 407 q 392 404 308 407 q 479 757 447 650 q 316 602 435 711 q 149 440 197 493 q 128 419 140 432 q 111 400 117 406 z "},"5":{"ha":671,"x_min":-4,"x_max":663,"o":"m -4 75 q 26 181 -4 135 q 108 226 57 226 q 133 225 126 226 q 89 90 89 188 q 124 -28 89 19 q 231 -76 158 -76 q 399 22 335 -76 q 464 242 464 121 q 418 397 464 336 q 278 458 372 458 q 150 443 226 458 q 188 611 158 500 l 253 843 l 294 990 q 442 972 367 972 q 657 1000 524 972 q 663 963 663 979 q 613 883 663 907 q 492 858 563 858 q 403 867 453 858 q 340 876 353 876 q 322 872 328 876 q 308 849 317 867 q 267 724 292 810 q 222 561 242 638 q 203 483 203 485 q 324 497 268 497 q 528 425 458 497 q 599 235 599 353 q 494 -19 599 83 q 231 -121 390 -121 q 52 -61 108 -121 q -4 75 -4 -1 z "},"6":{"ha":779,"x_min":68,"x_max":733,"o":"m 68 222 q 85 390 68 301 q 135 565 103 478 q 215 730 167 651 q 320 869 263 808 q 451 965 378 929 q 603 1000 525 1000 q 698 980 663 1000 q 733 919 733 960 q 669 853 733 872 q 671 871 669 860 q 672 892 672 882 q 596 968 672 968 q 434 883 513 968 q 305 681 356 799 q 222 429 254 564 q 457 519 319 519 q 640 451 568 519 q 711 250 711 383 q 610 -15 711 92 q 351 -121 508 -121 q 136 -26 204 -121 q 68 222 68 68 m 192 194 q 199 108 192 150 q 222 22 206 65 q 274 -49 239 -22 q 358 -76 310 -76 q 525 28 460 -76 q 590 258 590 132 q 541 418 590 364 q 417 472 492 472 q 245 394 299 472 q 192 194 192 315 z "},"7":{"ha":560,"x_min":82,"x_max":681,"o":"m 82 401 q 116 462 83 440 q 185 488 149 483 q 278 492 222 492 l 311 492 q 439 715 354 574 l 540 882 q 433 878 517 882 q 317 874 350 874 q 175 939 175 874 q 193 997 175 964 q 245 988 206 996 q 304 978 285 981 q 363 972 324 975 q 447 969 403 969 q 681 997 599 969 q 606 893 638 928 q 383 488 493 728 q 521 481 511 481 q 565 485 549 481 q 456 414 517 414 q 350 415 396 414 l 325 356 q 297 286 306 310 l 272 218 q 248 146 257 175 q 233 81 239 117 q 226 15 226 44 q 243 -37 226 -25 q 190 -100 224 -79 q 132 -121 157 -121 q 99 -104 113 -121 q 85 -58 85 -87 q 271 415 85 40 q 82 401 151 413 z "},"8":{"ha":732,"x_min":40,"x_max":651,"o":"m 40 107 q 48 170 40 140 q 76 231 56 200 l 111 279 q 163 331 125 299 q 217 375 200 363 l 281 422 l 340 467 q 225 617 265 549 q 185 769 185 685 q 262 941 185 883 q 442 999 339 999 q 594 947 538 999 q 651 799 651 894 q 599 633 651 706 q 453 485 547 560 q 540 387 511 421 q 598 291 568 353 q 628 169 628 229 q 524 -40 628 40 q 283 -121 419 -121 q 99 -51 157 -121 q 40 107 40 19 m 125 111 q 177 -17 125 32 q 297 -67 229 -67 q 447 -1 379 -67 q 514 164 514 65 q 478 294 514 235 q 376 426 443 353 q 281 354 313 381 q 206 285 249 328 q 144 201 163 243 q 125 111 125 158 m 293 788 q 325 656 293 717 q 417 526 357 594 q 571 800 571 656 q 534 919 571 878 q 443 961 497 961 q 340 918 386 961 q 293 788 293 875 z "},"9":{"ha":786,"x_min":119,"x_max":763,"o":"m 119 642 q 217 898 119 796 q 467 1000 314 1000 q 691 899 619 1000 q 763 636 763 799 q 726 385 763 517 q 627 140 690 254 q 465 -47 564 26 q 254 -121 367 -121 q 121 -37 121 -121 q 182 26 121 7 q 181 10 182 19 q 181 -8 181 0 q 260 -89 181 -89 q 383 -41 324 -89 q 485 87 442 7 q 562 259 529 167 q 614 450 594 351 q 383 360 524 360 q 194 431 269 360 q 119 642 119 503 m 240 633 q 292 464 240 521 q 422 407 344 407 q 582 472 529 407 q 635 651 635 538 q 627 758 635 708 q 601 854 619 807 q 547 928 583 901 q 461 956 511 956 q 302 856 364 956 q 240 633 240 757 z "}," ":{"ha":360,"x_min":0,"x_max":0,"o":""},"!":{"ha":361,"x_min":-29,"x_max":464,"o":"m -29 24 q -3 63 -29 46 q 51 81 24 81 q 88 47 88 81 q 65 6 88 26 q 15 -14 42 -14 q -29 24 -29 -14 m 56 143 q 132 407 56 208 l 186 547 l 239 678 q 294 806 272 760 l 346 903 q 396 977 374 954 q 436 1000 418 1000 q 456 991 447 1000 q 464 968 464 982 q 301 588 464 913 q 56 143 138 264 z "},"\"":{"ha":340,"x_min":182,"x_max":468,"o":"m 182 851 q 210 949 182 897 q 267 1000 238 1000 q 291 988 281 1000 q 301 961 301 976 q 278 934 289 949 q 260 908 267 919 q 244 880 253 897 q 231 854 235 863 l 217 826 q 206 800 207 807 q 182 851 182 814 m 349 851 q 376 949 349 897 q 433 1000 404 1000 q 458 988 447 1000 q 468 961 468 976 q 444 934 456 949 q 426 908 433 919 q 410 881 419 897 l 397 854 l 385 826 q 372 800 375 807 q 349 851 349 814 z "},"#":{"ha":928,"x_min":13,"x_max":919,"o":"m 13 215 q 313 313 19 306 q 332 401 325 376 q 143 388 160 389 l 64 381 q 349 476 71 469 l 401 738 q 442 938 432 893 q 449 963 446 954 q 467 983 453 972 q 504 1000 481 994 q 486 906 500 982 l 449 706 l 406 478 l 411 478 q 583 472 472 478 l 678 938 q 685 963 682 954 q 703 983 689 972 q 740 1000 717 994 q 722 903 736 982 l 683 700 l 639 469 q 735 464 676 468 q 839 457 794 460 q 919 454 883 454 q 779 410 868 410 q 699 409 749 410 q 628 408 649 408 q 607 303 608 310 q 867 289 850 289 q 728 244 815 244 q 594 243 635 244 q 558 74 574 138 q 524 -54 543 10 q 484 -151 504 -118 q 438 -205 464 -185 q 378 -225 411 -225 q 532 239 442 -147 l 357 239 l 326 97 q 299 -16 315 46 q 268 -110 282 -78 q 235 -172 254 -142 q 192 -213 215 -201 q 142 -225 169 -225 q 294 236 206 -147 q 90 222 206 232 l 13 215 m 372 313 q 547 307 436 313 l 569 407 q 390 404 493 407 l 372 313 z "},"$":{"ha":738,"x_min":1,"x_max":690,"o":"m 1 132 q 58 266 1 218 q 179 314 114 314 q 103 129 103 231 q 146 17 103 58 q 269 -33 189 -25 q 369 365 314 117 q 299 409 322 393 q 242 455 275 425 q 194 521 208 485 q 179 601 179 557 q 268 800 179 714 q 481 906 357 886 q 485 925 481 908 q 492 949 489 942 q 501 968 494 956 q 520 988 508 981 q 550 1000 532 996 q 533 910 540 951 q 656 872 621 910 q 690 765 690 835 q 624 542 690 656 q 588 563 600 547 q 575 600 575 579 q 601 699 575 621 q 626 808 626 776 q 526 876 626 876 l 444 443 q 517 401 490 418 q 576 353 543 383 q 625 285 610 324 q 640 199 640 247 q 549 7 640 81 q 326 -78 457 -67 q 188 -225 271 -225 q 256 -78 218 -186 q 74 -17 146 -71 q 1 132 1 36 m 267 636 q 299 542 267 579 q 393 471 332 506 l 474 871 q 325 782 383 851 q 267 636 267 713 m 340 -33 q 490 28 435 -24 q 544 157 544 79 q 422 335 544 260 q 340 -33 361 29 z "},"%":{"ha":969,"x_min":108,"x_max":903,"o":"m 108 -121 q 415 354 201 -28 q 706 938 628 736 q 751 979 713 958 q 822 1000 790 1000 q 622 601 796 933 q 365 135 449 268 q 225 -56 286 8 q 108 -121 164 -121 m 136 632 q 195 831 136 733 q 338 929 254 929 q 422 890 390 929 q 454 785 454 850 q 394 584 454 686 q 250 482 333 482 q 165 525 194 482 q 136 632 136 568 m 213 621 q 258 535 213 535 q 344 623 306 535 q 382 796 382 711 q 338 879 382 879 q 247 790 282 879 q 213 621 213 701 m 585 150 q 644 349 585 251 q 786 447 703 447 q 871 408 839 447 q 903 303 903 368 q 842 102 903 204 q 699 0 782 0 q 614 43 643 0 q 585 150 585 86 m 661 140 q 707 53 661 53 q 792 141 754 53 q 831 314 831 229 q 786 397 831 397 q 696 309 731 397 q 661 140 661 221 z "},"&":{"ha":856,"x_min":-4,"x_max":883,"o":"m -4 132 q 101 369 -4 261 q 356 492 207 478 q 250 711 250 579 q 333 912 250 825 q 538 999 415 999 q 689 851 689 999 q 653 707 689 775 q 583 639 618 639 q 532 683 553 639 q 646 874 646 783 q 622 944 646 918 q 551 971 599 971 q 405 888 458 971 q 351 688 351 806 q 432 478 351 547 q 212 350 299 456 q 125 128 125 244 q 169 -12 125 49 q 303 -74 213 -74 q 568 62 447 -74 q 708 367 689 197 q 560 347 646 364 l 526 340 q 671 438 531 438 q 788 426 717 438 q 883 414 860 414 q 825 369 863 369 q 744 368 793 368 q 583 27 725 175 q 267 -121 442 -121 q 70 -48 144 -121 q -4 132 -4 25 z "},"'":{"ha":174,"x_min":182,"x_max":301,"o":"m 182 851 q 210 949 182 897 q 267 1000 238 1000 q 291 988 281 1000 q 301 961 301 976 q 278 934 289 949 q 260 908 267 919 q 244 880 253 897 q 231 854 235 863 l 217 826 q 206 800 207 807 q 182 851 182 814 z "},"(":{"ha":358,"x_min":79,"x_max":506,"o":"m 79 263 q 112 508 79 389 q 194 715 144 628 q 301 867 243 801 q 414 967 360 933 q 506 1000 468 1000 q 246 665 332 876 q 160 225 160 453 q 225 -92 160 17 q 197 -121 217 -111 q 113 18 146 -90 q 79 263 79 126 z "},")":{"ha":372,"x_min":-85,"x_max":343,"o":"m -85 -87 q 172 217 71 22 q 272 660 272 411 q 174 1000 272 864 q 290 876 238 983 q 343 604 343 768 q 295 316 343 457 q 181 83 247 175 q 49 -65 114 -8 q -54 -121 -15 -121 q -85 -87 -71 -117 z "},"*":{"ha":543,"x_min":161,"x_max":601,"o":"m 161 794 q 324 801 188 796 q 257 961 257 911 q 276 997 257 975 q 371 817 336 869 q 385 844 375 825 l 397 875 q 410 901 401 885 q 423 924 418 917 q 435 944 428 932 q 450 964 443 957 l 465 979 q 483 990 474 986 q 503 997 493 994 q 457 899 493 971 q 410 801 421 826 q 482 806 472 806 q 601 765 565 806 l 421 749 q 440 720 425 742 q 460 688 454 699 q 476 656 467 676 q 490 612 486 635 q 493 561 493 589 q 369 739 469 589 q 293 611 326 656 q 226 567 260 567 q 257 615 243 590 q 278 655 271 639 q 299 700 286 671 q 321 749 311 729 l 285 749 q 161 794 172 749 z "},"+":{"ha":567,"x_min":4,"x_max":500,"o":"m 4 200 q 225 268 26 264 l 225 338 q 265 481 225 425 q 278 268 276 385 q 500 256 400 267 q 357 215 444 215 l 278 215 q 210 -15 274 8 q 225 215 225 81 q 4 200 97 215 z "},",":{"ha":272,"x_min":-14,"x_max":106,"o":"m -14 -71 q 14 26 -14 -25 q 71 78 42 78 q 95 66 85 78 q 106 39 106 54 q 82 12 93 26 q 64 -14 71 -3 q 48 -42 57 -25 q 35 -68 39 -60 l 21 -96 q 10 -122 11 -115 q -14 -71 -14 -108 z "},"-":{"ha":672,"x_min":50,"x_max":546,"o":"m 50 200 q 313 268 75 268 q 546 256 425 268 q 403 215 490 215 l 271 215 q 50 200 146 215 z "},".":{"ha":297,"x_min":11,"x_max":128,"o":"m 11 24 q 38 63 11 46 q 92 81 64 81 q 128 47 128 81 q 105 6 128 26 q 56 -14 82 -14 q 11 24 11 -14 z "},"/":{"ha":458,"x_min":-94,"x_max":550,"o":"m -94 -225 q 433 938 35 -96 q 479 979 440 958 q 550 1000 518 1000 q 149 31 482 824 q 32 -158 97 -90 q -94 -225 -33 -225 z "},":":{"ha":300,"x_min":14,"x_max":214,"o":"m 14 24 q 40 63 14 46 q 94 81 67 81 q 131 47 131 81 q 108 6 131 26 q 58 -14 85 -14 q 14 24 14 -14 m 97 371 q 124 410 97 393 q 178 428 150 428 q 214 394 214 428 q 191 353 214 374 q 142 333 168 333 q 97 371 97 333 z "},";":{"ha":296,"x_min":1,"x_max":214,"o":"m 1 -71 q 29 26 1 -25 q 86 78 57 78 q 110 66 100 78 q 121 39 121 54 q 97 12 108 26 q 79 -14 86 -3 q 63 -43 72 -25 l 50 -68 l 38 -96 q 25 -122 28 -115 q 1 -71 1 -108 m 97 371 q 124 410 97 393 q 178 428 150 428 q 214 394 214 428 q 191 353 214 374 q 142 333 168 333 q 97 371 97 333 z "},"<":{"ha":431,"x_min":29,"x_max":300,"o":"m 29 219 q 173 313 97 249 q 293 439 249 376 q 300 408 300 428 q 65 204 300 326 q 125 163 104 176 q 188 128 146 149 q 290 83 229 107 q 250 61 271 61 q 120 119 200 61 q 29 219 40 178 z "},"=":{"ha":699,"x_min":72,"x_max":568,"o":"m 72 147 q 335 215 97 215 q 568 203 447 215 q 425 163 513 163 l 285 163 q 72 147 165 163 m 72 286 q 335 354 97 354 q 568 342 447 354 q 425 301 513 301 l 285 301 q 72 286 165 301 z "},">":{"ha":450,"x_min":85,"x_max":356,"o":"m 85 408 q 92 439 85 428 q 212 313 136 376 q 356 219 288 249 q 265 119 344 178 q 135 61 185 61 q 94 83 114 61 q 197 128 156 107 q 260 163 239 149 q 319 204 281 176 q 85 408 85 326 z "},"?":{"ha":607,"x_min":150,"x_max":629,"o":"m 150 694 q 233 908 150 817 q 442 1000 317 1000 q 579 952 529 1000 q 629 815 629 904 q 607 708 629 758 q 550 618 585 658 l 481 536 q 410 442 444 496 q 358 329 375 388 q 342 249 350 301 q 324 172 335 197 q 289 198 297 186 q 281 238 281 210 q 308 356 281 299 q 375 463 335 414 l 453 561 q 519 673 492 610 q 546 804 546 736 q 515 920 546 879 q 436 961 485 961 q 293 873 360 961 q 226 667 226 785 q 236 588 226 633 q 168 622 186 596 q 150 694 150 649 m 222 22 q 248 63 222 46 q 303 81 274 81 q 339 50 339 81 q 317 6 339 26 q 267 -14 294 -14 q 235 -4 249 -14 q 222 22 222 6 z "},"@":{"ha":810,"x_min":4,"x_max":740,"o":"m 4 122 q 131 419 4 289 q 447 549 257 549 q 665 474 590 549 q 740 297 740 400 q 667 102 740 192 q 499 13 594 13 q 410 94 410 13 q 413 122 410 103 q 231 -7 317 -7 q 172 17 194 -7 q 149 85 149 40 q 251 308 149 189 q 457 426 353 426 q 529 403 500 426 q 558 343 558 381 q 503 296 558 296 q 508 333 508 311 q 456 396 508 396 q 303 283 381 396 q 225 83 225 169 q 256 39 225 39 q 312 63 281 39 q 381 133 343 86 q 438 206 418 179 l 489 281 q 518 272 503 279 q 533 253 533 264 q 501 186 533 243 q 469 96 469 129 q 517 50 469 50 q 639 125 582 50 q 696 289 696 200 q 633 442 696 378 q 447 507 571 507 q 166 386 278 507 q 54 117 54 265 q 117 -61 54 11 q 308 -133 179 -133 q 606 -15 471 -133 l 614 -26 q 300 -168 489 -168 q 78 -84 153 -168 q 4 122 4 0 z "},"A":{"ha":822,"x_min":-24,"x_max":796,"o":"m -24 -49 q 188 386 -24 56 q 38 393 103 393 l -11 393 q 133 465 15 465 q 233 456 169 465 q 451 759 340 617 q 625 961 561 901 q 692 1000 665 1000 q 765 956 721 1000 q 634 610 719 919 q 549 131 549 301 q 600 19 549 19 q 782 225 676 19 l 796 211 q 688 28 753 97 q 556 -42 624 -42 q 447 144 447 -42 q 471 351 447 233 q 265 379 382 365 q 24 -121 129 129 q -24 -49 -24 -94 m 301 443 l 403 419 q 481 400 468 404 q 647 913 539 674 q 301 443 521 835 z "},"B":{"ha":844,"x_min":26,"x_max":783,"o":"m 26 -10 q 33 -6 26 -6 q 50 -9 36 -6 q 93 -16 64 -12 q 164 -19 122 -19 q 557 80 397 -19 q 717 310 717 179 q 367 485 717 485 q 313 484 347 485 q 263 483 278 483 l 138 36 q 79 56 103 36 q 56 103 56 75 q 75 182 56 115 q 136 374 97 257 q 244 672 175 490 q 369 961 314 854 q 274 933 318 951 q 207 900 231 914 q 178 886 183 886 q 150 900 167 886 q 133 924 133 914 q 231 962 194 949 q 331 988 267 975 q 463 1000 394 1000 q 567 992 518 1000 q 668 963 615 983 q 752 894 721 942 q 783 779 783 847 q 465 508 783 561 q 782 285 782 489 q 718 108 782 189 q 558 -20 654 28 q 363 -94 463 -68 q 181 -121 263 -121 q 26 -10 26 -121 m 271 515 q 424 533 353 518 q 560 579 496 549 q 663 664 625 610 q 700 790 700 718 q 465 971 700 971 q 439 969 447 971 q 271 515 357 810 z "},"C":{"ha":742,"x_min":31,"x_max":735,"o":"m 31 218 q 83 494 31 351 q 217 747 136 636 q 401 928 297 857 q 601 999 506 999 q 729 879 729 999 q 676 688 729 793 q 568 583 622 583 q 525 615 540 583 q 625 757 576 674 q 674 894 674 840 q 606 957 674 957 q 399 833 510 957 q 215 528 289 708 q 142 194 142 347 q 190 3 142 81 q 338 -74 239 -74 q 551 14 444 -74 q 715 225 658 101 l 735 211 q 548 -28 660 64 q 304 -121 436 -121 q 99 -22 167 -121 q 31 218 31 76 z "},"D":{"ha":907,"x_min":78,"x_max":893,"o":"m 78 -58 q 194 373 114 115 q 318 747 274 631 q 426 878 368 878 q 465 864 446 878 q 297 400 382 671 q 165 -79 211 129 q 225 -85 199 -85 q 500 23 368 -85 q 711 297 632 131 q 790 635 790 464 q 714 880 790 797 q 506 963 638 963 q 278 885 369 963 q 188 692 188 807 q 194 640 188 661 q 111 718 111 640 q 243 910 111 819 q 547 1000 375 1000 q 808 896 724 1000 q 893 619 893 792 q 834 335 893 474 q 681 98 775 197 q 467 -61 588 -1 q 226 -121 347 -121 q 78 -58 122 -121 z "},"E":{"ha":692,"x_min":-21,"x_max":683,"o":"m -21 132 q 85 369 -21 261 q 339 492 190 478 q 233 711 233 579 q 316 912 233 825 q 519 999 399 999 q 637 960 596 999 q 678 849 678 921 q 640 706 678 774 q 567 639 603 639 q 515 683 536 639 q 632 876 632 785 q 533 967 632 967 q 388 887 440 967 q 335 688 335 807 q 415 478 335 547 q 195 350 282 456 q 108 128 108 244 q 152 -12 108 49 q 286 -74 196 -74 q 500 14 393 -74 q 664 225 607 101 l 683 211 q 494 -30 606 61 q 250 -121 383 -121 q 53 -48 128 -121 q -21 132 -21 25 z "},"F":{"ha":669,"x_min":92,"x_max":853,"o":"m 92 749 q 202 924 92 856 q 474 993 313 993 q 615 983 524 993 q 750 972 707 972 q 853 986 806 972 q 769 910 804 931 q 696 889 735 889 q 603 899 672 889 l 499 913 q 365 519 460 818 q 492 508 410 517 q 608 497 574 499 q 545 458 586 465 q 344 449 504 451 l 283 242 q 211 -121 214 8 q 135 -90 153 -117 q 117 -11 117 -64 q 120 34 117 10 q 133 93 124 58 l 150 151 q 174 224 157 176 l 197 292 q 226 371 204 313 l 253 443 q 146 431 218 440 l 99 424 q 281 521 104 515 q 442 917 371 769 q 388 919 406 919 q 212 880 258 919 q 165 750 165 840 q 183 640 165 693 q 92 749 92 656 z "},"G":{"ha":769,"x_min":31,"x_max":746,"o":"m 31 224 q 117 580 31 397 q 339 881 204 763 q 601 999 474 999 q 710 954 675 999 q 746 842 746 910 q 709 703 746 767 q 624 639 672 639 q 581 671 596 639 q 651 763 614 694 q 689 883 689 831 q 607 957 689 957 q 606 957 607 957 q 399 832 510 957 q 215 526 289 707 q 142 196 142 346 q 194 -1 142 72 q 328 -74 246 -74 q 513 63 431 -74 q 606 347 594 199 q 463 365 525 365 q 424 365 451 365 q 378 364 396 364 q 472 436 394 436 q 609 404 518 436 q 707 371 700 372 l 697 326 q 613 -12 613 106 q 615 -70 613 -33 q 618 -121 618 -107 q 543 -22 543 -92 q 553 43 543 10 q 292 -121 435 -121 q 290 -121 292 -121 q 104 -28 178 -121 q 31 224 31 64 z "},"H":{"ha":857,"x_min":76,"x_max":878,"o":"m 76 -121 q 229 436 110 68 l 138 426 q 253 511 139 488 l 371 860 q 390 940 390 917 q 371 961 390 961 q 253 869 308 961 q 199 700 199 776 q 206 653 199 674 q 122 732 122 653 q 220 911 122 822 q 400 1000 318 1000 q 464 933 464 1000 q 453 874 464 910 l 344 521 q 425 524 394 524 q 661 511 533 524 q 801 928 764 849 q 878 1000 835 1000 q 732 506 819 846 q 781 503 746 506 q 836 500 817 500 q 722 456 794 456 q 719 456 721 456 q 676 265 690 336 q 631 -67 631 50 q 631 -71 631 -68 q 633 -121 631 -96 q 559 -91 581 -115 q 538 -12 538 -67 q 571 197 538 68 q 644 454 593 289 q 321 444 413 453 q 172 -32 201 68 q 131 -99 158 -76 q 76 -121 103 -121 z "},"I":{"ha":638,"x_min":-53,"x_max":761,"o":"m -53 -122 q -31 -62 -49 -86 q 22 -28 -12 -39 q 89 -15 56 -18 q 174 -11 122 -11 q 321 493 232 115 q 426 918 410 871 q 114 890 242 914 q 394 997 133 997 q 397 997 396 997 q 761 968 565 997 q 629 919 713 919 q 626 919 628 919 q 475 918 518 919 q 338 225 372 365 q 221 -12 289 33 q 367 -26 261 -15 q 522 -39 474 -37 q 365 -99 463 -99 l 281 -99 q 188 -100 213 -99 q 113 -103 164 -101 q 24 -110 63 -106 q -53 -122 -14 -115 z "},"J":{"ha":571,"x_min":-43,"x_max":708,"o":"m -43 61 q -13 222 -43 149 q 63 294 17 294 q 101 283 79 294 q 51 61 51 156 q 138 -71 51 -71 q 139 -71 138 -71 q 204 -39 176 -71 q 263 75 232 -7 q 374 476 311 210 q 472 926 438 743 q 192 899 301 925 q 418 997 207 997 q 708 968 554 997 q 601 928 685 928 q 549 927 582 928 q 503 926 517 926 q 532 861 532 903 q 469 519 532 793 q 335 85 407 246 q 229 -76 283 -32 q 107 -119 175 -119 q -43 61 -43 -119 z "},"K":{"ha":819,"x_min":42,"x_max":840,"o":"m 42 -96 l 67 -37 q 97 42 79 -7 l 131 132 l 174 260 l 226 413 l 296 615 l 379 860 q 397 928 397 910 q 364 961 397 961 q 247 869 301 961 q 192 700 192 776 q 199 653 192 674 q 115 732 115 653 q 213 911 115 822 q 393 1000 311 1000 q 457 933 457 1000 q 446 874 457 910 l 329 496 q 353 523 339 508 q 379 547 368 538 l 414 574 l 449 601 q 660 794 553 685 q 828 1000 768 904 q 840 939 840 983 q 335 447 840 788 l 401 335 q 464 240 419 304 q 544 135 508 175 q 636 39 579 96 q 763 -75 693 -18 q 689 -121 739 -121 q 688 -121 689 -121 q 498 58 619 -121 q 300 404 376 236 l 165 -32 q 145 -69 158 -54 q 112 -88 132 -83 q 78 -94 92 -93 q 42 -96 65 -96 z "},"L":{"ha":792,"x_min":-103,"x_max":786,"o":"m -103 47 q -1 108 -103 108 q 169 79 60 108 q 218 183 193 119 q 258 290 243 247 q 303 429 272 332 l 343 556 q 242 617 279 576 q 206 704 206 657 q 230 779 206 744 q 292 814 254 814 q 274 728 274 789 q 353 585 274 628 q 411 744 383 678 q 476 874 439 811 q 557 968 513 936 q 651 1000 601 1000 q 744 967 703 1000 q 786 858 786 933 q 765 754 786 808 q 706 651 744 700 q 601 570 667 601 q 453 539 535 539 l 431 539 q 231 61 313 183 q 293 42 243 57 l 361 21 q 421 4 378 15 q 488 -12 464 -7 q 542 -21 511 -17 q 599 -25 574 -25 q 697 -3 654 -25 q 551 -121 656 -121 q 465 -106 515 -121 q 384 -79 414 -92 q 281 -33 354 -67 q 190 8 207 1 q 36 -74 117 -74 q -65 -33 -26 -74 q -103 47 -103 7 m -67 46 q -67 33 -67 46 q -37 -7 -67 19 q 31 -33 -8 -33 q 138 31 89 -33 q -21 72 35 72 q -67 46 -67 72 m 439 565 q 632 682 553 567 q 711 896 711 797 q 661 965 711 965 q 601 936 631 965 q 543 842 572 907 q 493 721 514 778 q 439 565 472 664 z "},"M":{"ha":1060,"x_min":-24,"x_max":1032,"o":"m -24 -121 l 417 856 q 431 913 431 886 q 383 949 431 949 q 256 870 301 949 q 211 696 211 792 q 214 653 211 678 q 159 689 178 653 q 140 767 140 725 q 228 928 140 856 q 411 1000 317 1000 q 517 934 483 1000 q 551 689 551 868 q 538 392 551 590 q 522 142 524 194 q 646 451 556 269 q 803 743 736 633 q 918 925 869 853 q 941 957 933 947 q 960 974 949 967 q 988 982 972 982 q 1032 972 1007 982 q 969 778 997 889 q 883 356 922 594 q 843 -7 843 118 q 845 -45 843 -29 q 849 -69 847 -61 q 856 -93 850 -76 q 864 -121 861 -110 q 772 -87 794 -121 q 750 35 750 -54 q 772 275 750 139 q 818 510 794 411 l 889 783 q 686 419 800 669 q 517 4 572 168 q 496 -1 501 -1 q 448 40 461 -1 q 435 168 435 81 q 446 465 435 244 q 457 758 457 686 q 454 836 457 797 l 363 622 l 286 436 l 222 282 l 167 153 l 119 51 q 78 -27 94 1 q 44 -79 63 -56 q 9 -112 25 -103 q -24 -121 -7 -121 z "},"N":{"ha":889,"x_min":64,"x_max":921,"o":"m 64 -121 q 119 72 83 -46 l 222 408 l 358 860 q 368 917 368 894 q 347 949 368 949 q 235 863 285 949 q 186 701 186 778 q 193 653 186 674 q 110 732 110 653 q 206 912 110 824 q 388 1000 303 1000 q 435 985 414 1000 q 473 935 457 969 q 500 869 489 901 q 521 777 511 836 q 535 678 531 718 q 549 567 540 639 q 610 100 578 307 q 721 569 635 269 q 833 932 807 869 q 868 977 843 954 q 921 1000 893 1000 q 743 408 840 786 q 644 -121 646 31 q 574 -95 600 -121 q 536 -8 547 -69 q 410 818 499 189 q 175 24 224 150 q 85 -118 129 -103 q 64 -121 75 -121 z "},"O":{"ha":865,"x_min":29,"x_max":836,"o":"m 29 224 q 82 495 29 354 q 217 746 135 636 q 403 927 299 856 q 604 999 507 999 q 688 982 656 999 l 672 982 q 491 908 586 982 q 322 720 396 833 q 200 467 249 607 q 151 204 151 328 q 198 5 151 83 q 338 -74 244 -74 q 567 53 461 -74 q 728 356 672 179 q 783 701 783 533 q 768 833 783 772 q 721 893 753 893 q 613 789 674 893 q 533 596 553 685 q 467 664 467 611 q 558 834 467 738 q 718 931 649 931 q 776 905 751 931 q 813 836 801 879 q 831 751 825 793 q 836 663 836 708 q 783 328 836 482 q 649 80 731 175 q 475 -68 568 -15 q 296 -121 382 -121 q 103 -26 176 -121 q 29 224 29 68 z "},"P":{"ha":732,"x_min":25,"x_max":814,"o":"m 25 -51 q 44 25 25 -31 l 156 367 q 257 647 196 486 q 386 963 318 808 q 294 934 339 953 q 224 901 250 915 q 193 886 199 886 q 167 900 183 886 q 150 924 150 914 q 457 1000 328 1000 q 622 972 543 1000 q 758 880 701 943 q 814 732 814 817 q 767 588 814 650 q 655 493 719 525 q 509 441 590 461 q 376 416 428 421 q 285 411 324 411 l 271 411 l 121 -121 q 54 -101 83 -121 q 25 -51 25 -81 m 276 433 q 433 459 357 438 q 574 518 508 481 q 681 617 640 556 q 721 756 721 679 q 649 915 721 861 q 469 971 576 969 q 276 433 385 803 z "},"Q":{"ha":963,"x_min":49,"x_max":881,"o":"m 49 274 q 122 615 49 449 q 324 891 196 782 q 599 1000 453 1000 q 806 910 731 1000 q 881 663 881 819 q 791 292 881 486 q 567 -6 701 99 q 772 -69 682 -69 q 853 -53 797 -69 q 717 -165 819 -165 q 634 -147 676 -165 q 565 -108 592 -128 q 494 -51 538 -87 q 356 -87 422 -87 q 278 -73 311 -87 q 231 -37 246 -58 q 209 3 215 -15 q 203 35 203 21 q 228 85 203 63 q 304 107 254 107 q 381 92 340 107 q 449 63 422 78 q 525 18 475 49 q 712 332 640 122 q 783 707 783 542 q 738 894 783 826 q 600 963 693 963 q 417 888 504 963 q 271 701 329 814 q 178 454 213 588 q 144 200 144 321 q 156 83 144 135 q 49 274 49 83 m 239 33 q 266 -24 239 6 q 356 -53 293 -53 q 464 -24 410 -53 q 290 71 357 71 q 239 33 239 71 z "},"R":{"ha":801,"x_min":22,"x_max":807,"o":"m 22 -51 q 42 25 22 -31 q 393 965 217 565 q 294 937 342 957 q 219 901 246 917 q 186 886 192 886 q 160 900 176 886 q 143 924 143 914 q 456 1000 319 1000 q 618 975 542 1000 q 751 889 694 950 q 807 740 807 828 q 761 603 807 663 q 653 515 715 544 q 512 466 592 485 q 381 443 432 447 q 289 439 329 439 l 343 346 l 399 247 q 455 159 417 217 q 526 63 493 101 q 608 -25 558 25 q 715 -122 658 -75 q 685 -154 707 -140 q 644 -168 664 -168 q 517 -68 596 -168 q 370 154 438 32 q 257 385 303 276 l 114 -121 q 50 -101 78 -121 q 22 -51 22 -81 m 279 461 q 483 499 389 468 q 645 601 576 531 q 714 769 714 671 q 642 923 714 875 q 465 971 571 971 q 279 461 382 806 z "},"S":{"ha":744,"x_min":-8,"x_max":683,"o":"m -8 128 q 46 270 -8 226 q 169 314 100 314 q 93 128 93 231 q 148 -11 93 44 q 306 -67 203 -67 q 486 -12 408 -67 q 564 136 564 42 q 520 253 564 201 q 414 343 476 306 l 290 417 q 185 508 229 454 q 142 629 142 561 q 189 794 142 710 q 330 939 236 878 q 538 1000 424 1000 q 683 861 683 1000 q 650 706 683 792 q 576 556 617 619 q 531 615 531 565 q 572 760 531 654 q 613 907 613 867 q 535 967 613 967 q 321 863 413 967 q 229 661 229 758 q 272 559 229 604 q 376 481 315 514 l 497 410 q 601 313 558 374 q 644 175 644 253 q 533 -40 644 40 q 282 -121 422 -121 q 76 -56 160 -121 q -8 128 -8 8 z "},"T":{"ha":681,"x_min":96,"x_max":882,"o":"m 96 878 q 435 1000 106 1000 q 681 985 539 1000 q 882 969 824 969 q 644 904 808 904 q 596 905 629 904 q 546 906 563 906 q 328 243 432 621 q 313 191 324 228 q 299 140 303 154 l 289 97 q 278 54 282 68 l 271 18 q 263 -21 265 -6 q 260 -55 261 -36 q 258 -90 258 -74 q 260 -121 258 -111 q 150 -22 150 -121 q 201 181 150 32 q 485 906 356 628 q 96 878 236 901 z "},"U":{"ha":981,"x_min":35,"x_max":988,"o":"m 35 749 q 115 919 35 839 q 300 1000 196 1000 q 443 832 443 1000 q 358 457 443 728 q 272 90 272 186 q 301 -22 272 21 q 389 -65 329 -65 q 492 -28 443 -65 q 577 68 542 8 q 637 189 613 128 q 676 311 661 250 l 733 543 q 792 753 756 629 q 860 938 828 876 q 918 1000 892 1000 q 988 956 946 1000 q 839 581 946 926 q 732 58 732 236 q 757 -69 732 -35 q 843 -104 782 -104 q 751 -137 794 -137 q 670 -94 701 -137 q 639 10 639 -51 q 651 136 639 53 q 351 -121 533 -121 q 218 -68 265 -121 q 171 68 171 -15 q 258 442 171 154 q 344 839 344 731 q 267 961 344 961 q 159 882 199 961 q 119 721 119 803 q 131 653 119 679 q 35 749 35 653 z "},"V":{"ha":878,"x_min":35,"x_max":897,"o":"m 35 753 q 113 921 35 842 q 289 1000 190 1000 q 417 934 374 1000 q 460 753 460 868 q 415 477 460 638 q 325 178 369 317 q 281 -24 281 39 q 319 -78 281 -78 q 513 65 396 -78 q 719 410 631 208 q 808 756 808 611 q 732 900 808 876 q 813 964 769 964 q 872 924 846 964 q 897 810 897 883 q 795 439 897 661 q 547 48 693 217 q 292 -121 401 -121 q 210 -96 249 -121 q 172 -10 172 -71 q 216 181 172 43 q 303 483 260 318 q 347 767 347 647 q 347 827 347 806 q 342 878 346 849 q 329 924 338 908 q 304 950 321 939 q 264 961 288 961 q 158 886 194 961 q 121 728 121 811 q 133 653 121 682 q 58 681 82 653 q 35 753 35 708 z "},"W":{"ha":1258,"x_min":35,"x_max":1276,"o":"m 35 753 q 113 921 35 842 q 289 1000 190 1000 q 417 934 374 1000 q 460 753 460 868 q 415 477 460 638 q 325 178 369 317 q 281 -24 281 40 q 322 -78 281 -78 q 483 40 388 -78 q 648 307 578 158 q 731 549 718 456 q 793 527 772 549 q 814 481 814 506 q 789 397 814 457 l 736 272 q 683 124 707 207 q 660 -19 660 42 q 667 -63 660 -49 q 699 -78 675 -78 q 892 65 775 -78 q 1099 410 1010 208 q 1188 756 1188 611 q 1111 900 1188 876 q 1192 964 1149 964 q 1251 924 1225 964 q 1276 810 1276 883 q 1174 439 1276 661 q 926 48 1072 217 q 671 -121 781 -121 q 588 -94 625 -121 q 551 -17 551 -67 q 579 108 551 21 q 292 -121 417 -121 q 210 -96 249 -121 q 172 -10 172 -71 q 216 181 172 43 q 303 483 260 318 q 347 767 347 647 q 347 827 347 806 q 342 878 346 849 q 329 924 338 908 q 304 950 321 939 q 264 961 288 961 q 158 886 194 961 q 121 728 121 811 q 133 653 121 682 q 58 681 82 653 q 35 753 35 708 z "},"X":{"ha":919,"x_min":35,"x_max":906,"o":"m 35 -156 q 53 -90 39 -114 q 103 -29 67 -67 q 418 342 260 140 q 404 650 407 514 q 389 898 401 835 q 322 961 376 961 q 218 883 258 961 q 178 721 178 804 q 189 653 178 679 q 93 749 93 653 q 174 919 93 838 q 354 1000 254 1000 q 499 868 465 1000 q 519 553 518 790 q 521 478 521 506 q 829 1003 740 782 q 851 974 840 994 q 861 936 861 954 q 522 401 861 835 q 653 -69 536 -69 q 889 225 724 -69 l 906 211 q 756 -43 819 35 q 615 -121 693 -121 q 523 -85 561 -121 q 465 16 485 -50 q 436 140 444 82 q 422 275 428 197 q 192 4 301 126 q 35 -156 82 -118 z "},"Y":{"ha":925,"x_min":32,"x_max":985,"o":"m 32 749 q 113 919 32 839 q 297 1000 193 1000 q 406 958 371 1000 q 442 860 442 917 q 395 646 442 814 q 349 399 349 478 q 446 265 349 265 q 608 365 533 265 q 740 611 683 465 q 907 1000 835 1000 q 985 956 943 1000 q 879 735 915 844 q 756 269 843 625 l 728 164 q 697 62 718 125 q 657 -40 676 -1 q 606 -125 638 -78 q 540 -198 575 -172 q 458 -242 506 -224 q 354 -260 410 -260 q 217 -225 271 -260 q 163 -128 163 -190 q 246 -25 163 -53 q 235 -100 235 -62 q 265 -192 235 -158 q 356 -225 296 -225 q 646 168 558 -225 l 671 293 l 704 453 q 403 210 578 210 q 251 375 251 210 q 299 621 251 450 q 346 853 346 792 q 267 961 346 961 q 157 882 197 961 q 117 721 117 803 q 128 653 117 679 q 32 749 32 653 z "},"Z":{"ha":876,"x_min":-35,"x_max":917,"o":"m -35 36 q 72 108 -35 108 q 261 72 139 108 q 532 446 383 201 q 351 431 449 444 l 304 424 q 511 521 310 521 q 574 518 532 521 q 736 847 688 721 q 628 885 704 856 q 478 938 551 915 q 350 961 404 961 q 193 761 193 961 q 199 713 193 731 q 124 813 124 726 q 194 952 124 904 q 392 1000 265 1000 q 650 956 494 1000 q 872 911 806 911 q 917 914 903 911 q 847 865 879 882 q 667 510 781 706 q 814 497 792 497 q 761 458 792 465 q 631 449 731 451 q 328 53 475 194 q 668 -25 575 -25 q 767 -3 724 -25 q 621 -121 725 -121 q 567 -115 597 -121 q 516 -102 538 -108 q 453 -79 494 -96 q 394 -56 411 -62 l 331 -25 q 271 3 282 -1 q 93 -75 171 -75 q 1 -40 36 -75 q -35 36 -35 -6 m 1 39 q 26 -12 1 13 q 86 -37 50 -37 q 214 28 138 -37 q 54 72 107 72 q 53 72 54 72 q 1 39 1 72 z "},"[":{"ha":546,"x_min":40,"x_max":615,"o":"m 40 -93 q 56 -44 47 -81 q 96 158 65 -8 l 196 692 q 274 913 225 850 q 376 976 324 976 q 421 974 386 976 q 476 972 456 972 q 615 1000 567 972 q 574 910 611 931 q 469 889 538 889 q 423 892 447 889 q 368 903 399 896 l 321 913 q 204 392 275 779 q 119 -44 133 6 q 333 -39 276 -43 q 453 -15 389 -35 q 272 -121 443 -121 q 40 -93 156 -121 z "},"\\":{"ha":778,"x_min":228,"x_max":604,"o":"m 228 1000 q 281 981 258 1000 q 313 938 304 961 q 411 546 353 833 l 521 26 q 604 -225 572 -206 q 503 -156 544 -214 q 428 31 463 -97 q 322 544 401 128 q 228 1000 243 961 z "},"]":{"ha":569,"x_min":-19,"x_max":557,"o":"m -19 -122 q 126 -25 -12 -25 q 299 -36 143 -25 q 423 499 344 96 q 510 936 501 901 l 422 936 q 146 907 249 936 q 190 981 146 963 q 325 1000 233 1000 q 557 971 425 1000 q 526 785 553 950 l 471 443 q 425 183 442 268 q 412 119 417 142 q 392 49 407 97 q 359 -26 376 1 q 313 -76 342 -53 q 247 -99 283 -99 q -19 -122 53 -99 z "},"^":{"ha":282,"x_min":0,"x_max":283,"o":"m 0 639 q 63 719 0 676 q 158 761 125 761 q 238 706 192 761 q 283 607 283 651 q 260 564 283 575 q 157 692 231 624 q 14 613 64 658 q 0 639 0 621 z "},"_":{"ha":1174,"x_min":-28,"x_max":994,"o":"m -28 -92 q 105 -2 -21 -26 q 461 22 231 22 q 761 10 611 22 q 994 -3 911 -3 q 768 -65 904 -65 q 562 -66 679 -65 q 404 -67 444 -67 q 296 -67 364 -67 q 205 -69 228 -68 q 136 -74 182 -71 q 58 -81 90 -78 q -28 -92 26 -85 z "},"`":{"ha":174,"x_min":0,"x_max":175,"o":"m 0 731 q 31 774 4 774 q 122 704 68 774 q 175 606 175 635 q 156 569 175 579 q 0 731 103 642 z "},"a":{"ha":606,"x_min":-36,"x_max":647,"o":"m -36 50 q 22 232 -36 132 q 171 404 79 332 q 349 476 263 476 q 439 447 403 476 q 475 372 475 418 q 407 313 475 313 q 414 361 414 338 q 346 439 414 439 q 216 369 285 439 q 103 206 147 299 q 60 46 60 114 q 97 -8 60 -8 q 156 15 122 -8 q 217 68 189 39 q 283 147 244 97 q 339 222 321 196 l 389 294 q 444 260 444 285 q 404 176 444 249 q 364 67 364 104 q 376 24 364 43 q 411 6 388 6 q 513 63 451 6 q 633 225 574 121 l 647 211 q 526 29 604 100 q 372 -42 447 -42 q 298 -13 324 -42 q 272 56 272 15 q 276 96 272 72 q 165 -26 214 13 q 67 -65 115 -65 q -8 -35 21 -65 q -36 50 -36 -6 z "},"b":{"ha":547,"x_min":-14,"x_max":593,"o":"m -14 74 q 70 429 -14 206 q 258 822 154 653 q 418 992 363 992 q 451 965 439 992 q 463 904 463 938 q 419 734 463 839 q 299 526 375 629 q 146 375 224 422 q 103 250 128 342 q 79 82 79 158 q 156 -49 79 -49 q 239 -16 196 -49 q 308 68 282 17 q 233 142 260 93 q 207 247 207 192 q 241 353 207 313 q 324 394 275 394 q 388 361 364 394 q 411 267 411 328 q 363 78 411 175 q 399 74 379 74 q 463 87 433 74 q 513 126 492 100 q 548 173 535 153 q 576 225 561 193 l 593 207 q 394 49 528 49 q 350 53 371 49 q 129 -101 258 -101 q 22 -55 58 -101 q -14 74 -14 -8 m 161 429 q 333 653 250 500 q 415 868 415 807 q 410 879 415 879 q 348 813 394 879 q 246 637 301 746 q 161 429 190 528 m 256 240 q 322 96 256 140 q 354 236 354 164 q 341 312 354 283 q 308 340 328 340 q 272 311 288 340 q 256 240 256 282 z "},"c":{"ha":449,"x_min":-7,"x_max":493,"o":"m -7 100 q 91 353 -7 238 q 297 469 189 469 q 373 440 350 469 q 396 367 396 410 q 377 295 396 325 q 326 265 358 265 q 286 286 303 265 q 322 330 307 296 q 338 396 338 364 q 307 431 338 431 q 157 313 235 431 q 79 90 79 194 q 181 -25 79 -25 q 348 44 265 -25 q 475 226 431 114 l 493 213 q 348 4 446 86 q 149 -78 250 -78 q 36 -32 79 -78 q -7 100 -7 14 z "},"d":{"ha":657,"x_min":-22,"x_max":757,"o":"m -22 75 q 34 251 -22 151 q 180 426 90 351 q 351 500 269 500 q 413 457 413 500 q 410 438 413 451 q 357 458 394 458 q 219 388 288 458 q 113 233 151 318 q 75 92 75 149 q 88 43 75 61 q 125 25 101 25 q 273 133 185 25 q 425 407 361 240 l 479 547 l 532 678 q 589 806 565 760 l 638 903 q 688 977 665 954 q 729 1000 711 1000 q 749 991 740 1000 q 757 968 757 982 q 707 832 757 940 l 597 604 q 488 337 538 483 q 438 97 438 190 q 439 52 438 65 q 447 29 440 39 q 469 19 454 19 q 578 77 515 19 q 683 225 642 135 l 700 213 q 581 35 660 107 q 431 -36 503 -36 q 361 -6 383 -36 q 339 68 339 25 q 365 217 339 115 q 219 29 294 100 q 82 -42 143 -42 q 10 -12 42 -42 q -22 75 -22 18 z "},"e":{"ha":463,"x_min":-19,"x_max":507,"o":"m -19 100 q 97 364 -19 228 q 333 500 214 500 q 419 415 419 500 q 311 236 419 314 q 75 146 203 158 q 69 96 69 122 q 179 -21 69 -21 q 350 50 264 -21 q 490 225 436 121 l 507 213 q 353 14 451 89 q 150 -61 254 -61 q 24 -16 68 -61 q -19 100 -19 29 m 82 172 q 269 276 179 207 q 358 425 358 346 q 329 457 358 457 q 188 366 264 457 q 82 172 111 275 z "},"f":{"ha":433,"x_min":-94,"x_max":547,"o":"m -94 -267 q -33 51 -94 -160 q 115 474 28 263 q 310 842 203 685 q 500 1000 418 1000 q 547 939 547 1000 q 433 672 547 826 q 176 419 318 518 q 150 350 167 397 q 185 306 179 343 q 196 233 192 258 q 210 176 200 208 q 231 128 219 143 q 261 101 242 113 q 306 89 281 89 q 384 121 351 89 q 460 225 417 153 l 481 211 q 396 93 447 133 q 299 53 344 53 q 196 99 246 53 q 127 -233 194 -78 q -18 -389 60 -389 q -71 -362 -47 -389 q -94 -267 -94 -335 m -8 -256 q 18 -322 -8 -322 q 108 -174 57 -322 q 160 83 160 -26 q 113 246 160 153 q -8 -256 -8 -110 m 199 476 q 408 716 324 592 q 493 888 493 840 q 474 907 493 907 q 349 787 422 907 q 199 476 275 667 z "},"g":{"ha":540,"x_min":-28,"x_max":583,"o":"m -28 -308 q -17 -256 -28 -281 q 18 -207 -7 -231 q 62 -167 43 -183 q 122 -128 81 -150 l 181 -96 q 243 -64 197 -86 q 314 165 282 36 q 88 -12 190 -12 q 11 24 39 -12 q -17 122 -17 61 q 44 299 -17 214 q 190 433 106 385 q 351 482 275 482 q 426 438 426 482 q 410 410 426 415 q 354 431 394 431 q 163 321 251 431 q 75 115 75 211 q 124 47 75 47 q 217 99 161 47 q 329 231 274 150 l 346 304 q 417 375 361 375 q 446 371 429 375 q 415 220 446 333 q 339 -10 385 107 q 473 87 411 25 q 565 225 535 149 l 583 211 q 478 57 554 126 q 324 -50 403 -12 q 53 -389 183 -389 q -4 -369 19 -389 q -28 -308 -28 -349 m 15 -296 q 24 -331 15 -318 q 49 -344 33 -344 q 128 -284 81 -344 q 228 -101 176 -224 q 71 -197 126 -153 q 15 -296 15 -242 z "},"h":{"ha":661,"x_min":8,"x_max":706,"o":"m 8 92 q 86 438 8 219 q 265 824 164 656 q 424 992 365 992 q 458 965 446 992 q 469 904 469 938 q 425 733 469 839 q 304 525 381 628 q 150 375 228 422 q 99 101 99 254 q 101 54 99 79 q 383 414 225 414 q 463 377 436 414 q 489 289 489 340 q 459 165 489 243 q 429 56 429 88 q 471 3 429 3 q 582 69 518 3 q 688 225 646 135 l 706 208 q 588 35 660 103 q 439 -33 517 -33 q 368 -9 393 -33 q 343 54 343 15 q 365 156 343 82 q 386 264 386 229 q 333 331 386 331 q 245 271 288 331 q 177 139 203 211 q 122 7 151 67 q 65 -53 92 -53 q 24 -10 40 -53 q 8 92 8 33 m 168 429 q 340 653 257 500 q 422 868 422 807 q 417 879 422 879 q 356 816 401 879 q 256 643 311 753 q 168 429 200 533 z "},"i":{"ha":335,"x_min":-7,"x_max":374,"o":"m -7 81 q 22 226 -7 135 q 100 394 51 318 q 193 471 149 471 q 224 440 224 471 q 188 364 224 424 q 115 228 151 304 q 79 96 79 153 q 95 30 79 47 q 147 13 111 13 q 361 225 256 13 l 374 211 q 259 29 335 94 q 100 -36 183 -36 q 21 -3 49 -36 q -7 81 -7 29 m 210 646 q 243 696 210 674 q 311 718 276 718 q 357 676 357 718 q 328 624 357 649 q 267 600 300 600 q 210 646 210 600 z "},"j":{"ha":303,"x_min":-267,"x_max":347,"o":"m -267 -318 q -217 -206 -267 -267 q -92 -101 -168 -144 l -3 -57 q 90 285 57 92 l 51 218 l 25 175 l 13 196 q 65 316 35 238 q 117 438 94 394 q 165 482 140 482 q 199 440 199 482 q 166 264 199 403 q 88 -11 133 125 q 121 8 93 -8 q 158 29 149 24 l 190 51 q 226 82 214 67 l 260 117 q 296 163 279 138 q 329 218 313 188 l 347 208 q 303 124 328 161 q 243 59 278 88 q 189 17 208 31 q 126 -22 169 3 q 74 -50 82 -46 q -194 -389 -50 -389 q -248 -369 -229 -389 q -267 -318 -267 -350 m -231 -308 q -207 -342 -231 -342 q -124 -278 -176 -342 q -21 -101 -71 -214 q -176 -207 -122 -151 q -231 -308 -231 -262 m 132 651 q 165 703 132 681 q 233 725 197 725 q 279 686 279 725 q 251 631 279 656 q 188 607 222 607 q 148 619 164 607 q 132 651 132 631 z "},"k":{"ha":619,"x_min":6,"x_max":660,"o":"m 6 88 q 90 444 6 224 q 276 828 175 665 q 426 992 378 992 q 457 965 444 992 q 469 901 469 939 q 388 674 469 801 q 186 474 306 546 q 94 76 94 249 q 406 465 249 465 q 493 429 457 465 q 529 342 529 393 q 490 248 529 288 q 408 194 450 208 q 332 179 365 179 q 345 117 336 153 q 381 41 354 82 q 440 0 407 0 q 646 226 544 0 l 660 213 q 556 27 629 107 q 413 -53 483 -53 q 330 -6 364 -53 q 283 94 296 40 q 271 197 271 147 q 336 210 297 197 q 412 255 375 222 q 449 331 449 288 q 428 376 449 358 q 379 393 407 393 q 269 331 322 393 q 185 200 215 269 q 129 57 156 131 q 101 -18 103 -17 q 56 -43 86 -43 q 54 -43 56 -43 q 27 -33 38 -43 q 13 -1 17 -22 q 7 39 8 21 q 6 88 6 57 m 210 529 q 361 705 300 601 q 422 867 422 808 q 418 879 422 879 q 333 773 397 879 q 210 529 269 667 z "},"l":{"ha":328,"x_min":4,"x_max":482,"o":"m 4 101 q 58 353 4 196 q 184 652 113 511 q 328 897 256 793 q 436 1000 401 1000 q 469 965 456 1000 q 482 897 482 931 q 368 580 482 793 q 113 250 254 367 q 94 110 94 169 q 156 3 94 3 q 260 68 207 3 q 356 225 314 133 l 376 214 q 117 -42 257 -42 q 115 -42 117 -42 q 4 101 4 -42 m 125 297 q 339 601 239 413 q 439 865 439 789 q 429 888 439 888 q 352 798 410 888 q 228 565 294 708 q 125 297 161 422 z "},"m":{"ha":897,"x_min":-49,"x_max":940,"o":"m -49 -8 q -25 65 -49 -3 q 23 221 -1 133 q 47 363 47 308 q 111 392 74 392 q 149 356 149 392 q 113 197 149 318 q 259 383 181 306 q 406 461 338 461 q 481 356 481 461 q 438 160 481 265 q 668 374 556 374 q 747 285 747 374 q 722 163 747 246 q 696 53 696 81 q 738 6 696 6 q 924 225 824 6 l 940 206 q 839 30 901 103 q 700 -43 776 -43 q 631 -15 654 -43 q 607 58 607 14 q 628 163 607 94 q 649 256 649 231 q 608 306 649 306 q 540 260 576 306 q 426 99 503 215 q 360 -31 410 74 q 313 -23 338 -31 q 289 -3 289 -15 q 333 129 289 0 q 376 317 376 258 q 342 369 376 369 q 180 237 282 369 q 26 -37 78 104 q -22 -28 6 -37 q -49 -8 -49 -18 z "},"n":{"ha":647,"x_min":-53,"x_max":689,"o":"m -53 10 q -28 75 -53 14 q 21 217 -4 136 q 46 351 46 299 q 110 381 72 381 q 147 344 147 381 q 103 161 147 297 q 392 406 263 406 q 468 369 442 406 q 494 281 494 332 q 466 164 494 235 q 438 61 438 93 q 479 8 438 8 q 674 225 565 8 l 689 207 q 449 -28 589 -28 q 376 -3 401 -28 q 351 61 351 21 q 372 155 351 89 q 392 254 392 221 q 336 322 392 322 q 265 296 303 322 q 197 239 226 269 q 128 150 168 208 q 72 64 89 92 l 21 -21 q -53 10 -31 -21 z "},"o":{"ha":507,"x_min":-14,"x_max":550,"o":"m -14 82 q 37 259 -14 171 q 146 347 88 347 q 175 340 158 347 q 113 230 149 318 q 76 92 76 142 q 126 13 76 13 q 275 124 188 13 q 215 207 236 156 q 193 314 193 258 q 230 438 193 386 q 329 489 267 489 q 425 382 425 489 q 332 135 425 274 q 385 121 357 121 q 468 145 425 121 q 533 221 511 169 l 550 207 q 475 117 524 146 q 375 88 426 88 q 308 101 338 88 q 96 -44 197 -44 q 13 -10 39 -44 q -14 82 -14 25 m 253 310 q 300 160 253 215 q 381 374 381 279 q 339 451 381 451 q 281 409 308 451 q 253 310 253 367 z "},"p":{"ha":543,"x_min":-132,"x_max":500,"o":"m -74 -165 q 0 105 -28 -32 q 58 494 28 242 q 65 513 60 508 q 85 518 69 518 q 135 499 118 518 q 151 454 151 481 q 119 267 151 415 q 224 410 163 350 q 360 471 286 471 q 460 427 421 471 q 500 313 500 383 q 403 78 500 193 q 172 -36 307 -36 q 115 -28 138 -36 q 92 -11 92 -21 q 126 -4 92 -4 q 322 93 235 -4 q 410 300 410 190 q 390 377 410 347 q 331 407 369 407 q 199 333 265 407 q 100 183 133 260 q -71 -382 -22 -335 q -87 -389 -78 -389 q -118 -365 -103 -389 q -131 -337 -132 -344 q -124 -306 -131 -326 q -101 -240 -118 -285 q -74 -165 -83 -194 z "},"q":{"ha":557,"x_min":-21,"x_max":600,"o":"m -21 78 q 37 256 -21 158 q 187 425 94 354 q 368 496 279 496 q 447 476 415 496 q 478 428 478 457 q 465 392 478 408 q 432 376 453 376 q 413 431 432 410 q 353 453 393 453 q 215 383 282 453 q 113 231 149 314 q 76 92 76 149 q 90 43 76 61 q 125 25 103 25 q 209 76 160 25 q 293 177 258 126 q 385 319 328 228 q 446 363 411 363 q 474 338 474 363 q 423 228 474 321 q 351 40 372 136 q 583 224 493 53 l 600 208 q 490 63 557 111 q 349 7 422 14 q 372 -150 372 -68 q 342 -319 372 -249 q 269 -389 313 -389 q 221 -290 221 -389 q 244 -89 221 -212 q 303 136 267 35 q 83 -42 179 -42 q 11 -12 43 -42 q -21 78 -21 18 m 296 -274 q 307 -312 296 -312 q 332 -258 322 -312 q 342 -137 342 -203 q 332 -33 342 -81 q 296 -274 296 -185 z "},"r":{"ha":483,"x_min":1,"x_max":531,"o":"m 1 176 q 114 440 68 306 q 100 474 100 454 q 122 540 100 511 q 158 568 143 568 q 178 535 178 568 q 170 508 178 529 q 163 483 163 486 q 185 448 163 467 q 233 413 207 429 q 282 363 260 396 q 304 290 304 331 q 269 163 304 244 q 235 56 235 82 q 276 14 235 14 q 410 83 338 14 q 513 221 483 153 l 531 207 q 406 38 488 111 q 240 -36 324 -36 q 166 -11 193 -36 q 139 54 139 14 q 177 187 139 96 q 215 314 215 278 q 211 341 215 328 q 203 362 207 354 q 189 379 200 369 l 174 393 q 155 407 169 397 q 138 419 140 417 q 14 153 72 253 l 1 176 z "},"s":{"ha":479,"x_min":-28,"x_max":518,"o":"m -28 111 q -16 174 -28 149 q 10 209 -4 200 q 41 225 25 218 q 61 236 57 232 q 199 438 150 333 l 199 454 q 215 525 199 501 q 253 549 231 549 q 275 531 275 549 q 271 508 275 528 q 267 469 267 489 q 303 315 267 428 q 339 135 339 203 q 331 67 339 97 q 506 224 433 85 l 518 210 q 324 44 469 67 q 146 -71 281 -71 q 14 -17 56 -71 q -28 111 -28 38 m 35 113 q 66 19 35 60 q 149 -22 97 -22 q 236 46 213 -22 q 135 90 181 57 q 65 161 89 122 q 35 113 35 160 m 71 204 q 243 68 122 94 q 249 133 249 104 q 242 215 249 172 q 222 310 235 258 q 206 385 210 363 q 71 204 135 268 z "},"t":{"ha":396,"x_min":-6,"x_max":440,"o":"m -6 74 q 75 408 -6 193 q 25 419 42 414 l 25 444 q 86 439 75 439 q 217 713 147 597 q 328 829 288 829 q 348 821 339 829 q 357 799 357 813 q 330 726 357 778 q 253 589 303 675 q 172 435 204 503 l 224 435 q 422 443 339 435 l 422 418 q 185 401 275 401 q 178 401 181 401 l 157 401 q 81 100 81 228 q 99 13 81 38 q 158 -12 117 -12 q 299 51 229 -12 q 422 225 368 114 l 440 211 q 301 13 389 90 q 118 -64 214 -64 q -6 74 -6 -64 z "},"u":{"ha":608,"x_min":0,"x_max":653,"o":"m 0 99 q 46 296 0 178 q 122 414 92 414 q 174 386 149 414 q 113 255 144 340 q 81 107 81 169 q 131 14 81 14 q 169 28 149 14 q 210 69 189 42 q 249 123 231 96 q 289 190 268 150 l 325 258 l 358 325 q 383 376 376 365 q 450 340 450 364 q 426 284 450 336 q 380 164 403 232 q 357 56 357 96 q 403 0 357 0 q 518 62 450 0 q 635 225 586 124 l 653 213 q 528 30 608 101 q 374 -42 449 -42 q 276 61 276 -42 q 286 131 276 89 q 104 -42 189 -42 q 29 -1 58 -42 q 0 99 0 40 z "},"v":{"ha":565,"x_min":14,"x_max":610,"o":"m 14 99 q 22 281 14 125 q 26 321 24 310 q 38 339 29 332 q 67 346 47 346 q 97 337 90 346 q 103 301 103 328 q 97 194 103 272 q 90 78 90 115 q 122 0 90 0 q 233 94 168 0 q 351 304 299 188 q 415 461 357 461 q 452 444 439 461 q 465 408 465 426 q 453 374 465 396 q 429 315 442 353 q 417 222 417 276 q 482 117 417 117 q 592 219 542 117 l 610 206 q 472 89 560 89 q 356 224 374 89 q 226 28 299 110 q 90 -54 153 -54 q 14 99 14 -54 z "},"w":{"ha":857,"x_min":0,"x_max":901,"o":"m 0 99 q 46 296 0 178 q 122 414 92 414 q 153 406 133 414 q 174 386 174 397 q 113 255 144 342 q 81 107 81 168 q 129 14 81 14 q 338 279 203 14 q 363 383 354 363 q 393 404 372 404 q 433 374 433 404 q 431 358 433 369 q 392 68 392 232 q 422 0 392 0 q 524 87 461 0 q 638 285 586 174 q 707 461 638 461 q 744 444 731 461 q 757 408 757 426 q 745 374 757 396 q 721 315 733 353 q 708 222 708 276 q 774 117 708 117 q 883 219 835 117 l 901 206 q 764 89 851 89 q 647 206 675 89 q 520 22 589 97 q 392 -54 451 -54 q 317 81 317 -54 q 326 206 317 131 q 106 -42 203 -42 q 104 -42 106 -42 q 30 -1 60 -42 q 0 99 0 40 z "},"x":{"ha":581,"x_min":14,"x_max":622,"o":"m 14 201 l 42 261 q 73 326 60 301 q 106 378 86 350 q 153 419 126 406 q 214 432 179 432 q 329 300 304 432 q 518 461 483 461 q 540 457 526 461 q 553 446 553 453 q 338 246 510 446 q 342 198 339 228 q 346 150 344 168 q 350 108 347 132 q 358 69 353 83 q 369 40 363 54 q 388 20 376 26 q 413 14 399 14 q 517 82 460 14 q 608 224 575 150 l 622 210 q 519 40 590 115 q 378 -36 447 -36 q 297 15 322 -36 q 260 154 271 65 l 78 -72 q 61 -82 69 -82 q 47 -61 47 -82 q 253 217 47 -12 q 245 280 249 260 q 235 328 242 300 q 217 367 228 356 q 192 378 207 378 q 156 369 172 378 q 120 335 139 361 q 92 295 101 310 q 58 238 82 281 l 26 179 l 14 201 z "},"y":{"ha":540,"x_min":-28,"x_max":585,"o":"m -3 -369 q -15 -360 -3 -369 q -28 -315 -28 -350 q -11 -249 -28 -281 q 24 -197 6 -218 q 88 -148 43 -176 q 158 -107 133 -119 l 242 -64 q 319 190 283 43 q 117 14 211 14 q 39 43 72 14 q 6 126 6 72 q 51 316 6 203 q 128 429 97 429 q 165 419 140 429 q 189 397 189 408 q 129 267 161 357 q 97 125 97 178 q 147 69 97 69 q 235 121 185 69 q 332 247 286 172 q 346 311 339 271 q 417 382 361 382 q 446 378 429 382 q 415 224 446 340 q 338 -11 383 107 q 567 225 494 50 l 585 211 q 322 -49 533 49 q 60 -389 183 -389 q -3 -369 22 -389 m 15 -303 q 25 -331 15 -317 q 53 -344 35 -344 q 93 -322 68 -344 q 156 -241 118 -300 q 228 -97 193 -182 q 144 -144 172 -126 q 81 -187 115 -161 q 31 -242 46 -214 q 15 -303 15 -269 z "},"z":{"ha":440,"x_min":-99,"x_max":481,"o":"m -99 -318 q -81 -252 -99 -283 q -24 -190 -62 -221 q 51 -135 15 -158 l 146 -76 q 242 -17 206 -40 q 146 160 242 85 q 256 242 214 179 q 297 364 297 304 q 283 417 297 397 q 243 438 269 438 q 191 423 217 438 q 147 390 165 408 q 106 332 129 371 q 70 267 83 293 q 32 186 57 240 l 15 200 q 123 418 69 346 q 263 490 176 490 q 344 459 311 490 q 378 376 378 428 q 331 247 378 306 q 214 154 283 189 q 311 29 286 99 q 465 225 431 119 l 481 208 q 319 3 446 99 q 325 -43 325 -15 q 222 -280 325 -171 q -7 -389 119 -389 q -99 -318 -99 -389 m -60 -303 q -17 -349 -60 -349 q 138 -263 49 -349 q 240 -49 228 -178 l 154 -101 l 69 -154 q 6 -199 40 -172 q -44 -251 -29 -226 q -60 -303 -60 -276 z "},"{":{"ha":361,"x_min":51,"x_max":431,"o":"m 51 -29 q 103 142 51 17 q 154 324 154 267 q 104 460 154 419 q 187 523 160 465 q 219 658 214 581 l 232 815 q 267 947 238 893 q 354 1000 296 1000 q 431 926 424 1000 q 385 946 394 946 q 333 897 351 946 q 306 775 314 847 l 289 632 q 257 508 281 560 q 196 451 233 456 q 232 356 232 414 q 206 206 232 282 q 153 67 179 131 q 126 -42 126 3 q 172 -86 126 -86 q 207 -75 193 -86 q 142 -121 203 -121 q 51 -29 51 -121 z "},"|":{"ha":360,"x_min":76,"x_max":260,"o":"m 76 -183 q 164 429 121 -62 q 221 968 207 921 q 260 889 260 951 q 244 485 260 769 q 214 72 228 201 q 76 -183 188 -183 z "},"}":{"ha":356,"x_min":-29,"x_max":364,"o":"m -29 -47 q 18 -64 -4 -64 q 74 -1 56 -64 q 108 179 93 63 q 126 307 118 258 q 158 410 135 356 q 217 482 182 464 q 182 582 182 521 q 231 774 182 647 q 281 933 281 900 q 271 954 281 954 q 214 931 244 954 q 250 980 219 960 q 308 1000 281 1000 q 349 986 333 1000 q 364 953 364 972 q 313 801 364 929 q 261 603 261 674 q 310 471 261 504 q 222 390 251 457 q 187 240 193 324 q 173 73 181 156 q 137 -65 165 -10 q 50 -121 108 -121 q -29 -47 -22 -121 z "},"~":{"ha":604,"x_min":56,"x_max":482,"o":"m 56 222 q 171 286 104 286 q 297 256 207 286 q 440 225 386 225 q 482 229 461 225 q 374 179 438 179 q 249 206 335 179 q 119 233 164 233 q 56 222 83 233 z "},"":{"ha":367,"x_min":-110,"x_max":383,"o":"m -110 -315 q 53 65 -110 -260 q 299 510 217 389 q 222 246 299 444 l 168 106 l 115 -25 q 58 -154 82 -107 l 8 -250 q -42 -324 -19 -300 q -82 -347 -64 -347 q -101 -338 -93 -347 q -110 -315 -110 -329 m 267 606 q 290 647 267 626 q 339 667 313 667 q 383 629 383 667 q 357 590 383 607 q 303 572 331 572 q 267 606 267 572 z "},"":{"ha":560,"x_min":72,"x_max":503,"o":"m 72 336 q 159 562 72 454 q 350 697 246 669 q 394 938 381 840 q 457 1000 401 989 l 401 706 q 479 676 456 706 q 503 603 503 646 q 484 531 503 561 q 433 501 465 501 q 393 522 410 501 q 429 566 414 532 q 444 632 444 600 q 414 667 444 667 q 393 665 400 667 q 306 215 339 374 q 474 297 400 232 l 497 275 q 296 167 413 194 l 264 31 q 233 -75 251 -21 q 196 -158 214 -129 q 152 -206 178 -187 q 94 -225 126 -225 q 226 158 142 -172 q 115 204 157 158 q 72 336 72 250 m 158 326 q 240 211 158 222 q 340 646 286 390 q 213 508 267 606 q 158 326 158 411 z "},"":{"ha":903,"x_min":-29,"x_max":860,"o":"m -29 47 q 72 108 -29 108 q 243 79 133 108 q 313 236 281 143 q 199 222 204 224 l 151 215 q 339 313 157 307 l 360 376 q 293 368 338 372 q 226 361 249 364 l 179 354 q 383 451 185 451 l 417 556 q 316 617 353 576 q 279 704 279 657 q 303 779 279 744 q 365 814 328 814 q 347 728 347 789 q 426 585 347 628 q 485 744 457 678 q 549 874 513 811 q 631 968 586 936 q 725 1000 675 1000 q 818 967 776 1000 q 860 858 860 933 q 839 754 860 808 q 779 651 818 700 q 674 570 740 601 q 526 539 608 539 l 504 539 q 474 447 488 494 q 581 436 507 444 q 689 428 656 428 q 628 390 667 397 q 450 381 590 383 q 424 310 433 333 q 546 299 465 307 q 661 289 626 290 q 598 250 639 257 q 396 240 557 243 q 304 61 343 119 q 367 42 317 57 l 435 21 q 495 4 453 15 q 561 -12 538 -7 q 616 -21 585 -17 q 672 -25 647 -25 q 771 -3 728 -25 q 625 -121 729 -121 q 538 -106 589 -121 q 458 -79 488 -92 q 354 -33 428 -67 q 264 8 281 1 q 110 -74 190 -74 q 9 -33 47 -74 q -29 47 -29 7 m 53 72 q 7 46 7 72 q 35 -7 7 19 q 104 -33 64 -33 q 211 31 163 -33 q 53 72 108 72 m 513 565 q 706 682 626 567 q 785 896 785 797 q 735 965 785 965 q 675 936 704 965 q 617 842 646 907 q 567 721 588 778 l 513 565 z "},"":{"ha":968,"x_min":115,"x_max":964,"o":"m 115 60 q 166 100 129 74 q 243 163 203 126 q 318 250 283 200 q 306 343 306 288 q 369 589 306 469 q 206 756 268 699 q 181 839 181 778 q 189 886 181 865 q 407 651 228 849 q 588 758 488 758 q 731 664 688 758 q 778 726 750 686 q 821 785 806 767 q 867 819 836 803 q 939 835 899 835 q 964 832 947 835 q 750 579 947 808 q 751 568 750 575 q 751 557 751 561 q 676 294 751 426 q 835 58 835 146 q 832 33 835 42 q 793 82 821 54 l 718 156 l 638 235 q 465 133 557 133 q 350 189 390 133 q 115 60 235 60 m 385 329 q 414 242 385 278 q 476 207 443 207 q 570 267 522 207 q 648 414 618 328 q 678 572 678 500 q 650 655 678 621 q 588 689 622 689 q 485 624 535 689 q 410 476 436 558 q 385 329 385 393 z "},"":{"ha":1125,"x_min":153,"x_max":1106,"o":"m 153 749 q 233 919 153 839 q 418 1000 314 1000 q 527 958 492 1000 q 563 860 563 917 q 516 646 563 814 q 469 399 469 478 q 567 265 469 265 q 729 365 654 265 q 861 611 804 465 q 1028 1000 956 1000 q 1106 956 1064 1000 q 1000 735 1036 844 q 876 269 964 625 l 847 157 q 989 147 928 153 q 846 107 933 107 l 833 107 q 803 19 819 63 q 989 8 869 18 q 846 -32 933 -32 l 781 -32 q 475 -260 675 -260 q 338 -225 392 -260 q 283 -129 283 -190 q 367 -25 283 -53 q 356 -100 356 -62 q 386 -192 356 -158 q 476 -225 417 -225 q 703 -32 615 -225 q 493 -47 585 -32 q 724 21 517 15 q 751 107 733 44 l 744 107 q 493 92 592 107 q 756 160 518 160 l 764 160 l 767 168 l 792 293 q 825 453 811 390 q 524 210 699 210 q 372 375 372 210 q 419 621 372 450 q 467 853 467 792 q 388 961 467 961 q 278 882 318 961 q 238 721 238 803 q 249 653 238 679 q 153 749 153 653 z "},"":{"ha":361,"x_min":76,"x_max":260,"o":"m 76 -183 q 150 274 114 -83 q 214 301 178 301 q 231 269 231 301 q 185 -80 214 24 q 76 -183 156 -183 m 163 411 q 175 554 167 464 l 188 697 q 198 810 192 749 q 210 910 204 872 q 221 968 215 949 q 260 889 260 951 q 253 738 260 863 q 246 531 246 613 q 235 483 246 511 q 201 439 225 456 l 163 411 z "},"":{"ha":578,"x_min":10,"x_max":557,"o":"m 10 39 q 44 129 10 101 q 122 157 78 157 q 74 39 74 106 q 108 -50 74 -14 q 210 -86 143 -86 q 325 -51 275 -86 q 375 43 375 -17 q 347 120 375 85 q 278 182 318 156 l 197 238 q 128 309 157 267 q 100 403 100 351 q 159 540 100 482 q 322 597 218 597 q 356 596 344 597 q 301 628 319 617 q 258 662 283 640 q 222 708 233 683 q 211 763 211 732 q 283 921 211 843 q 458 999 356 999 q 557 911 557 999 q 489 715 557 824 q 460 753 460 721 q 485 846 460 778 q 511 940 511 914 q 463 978 511 978 q 325 911 383 978 q 267 781 267 844 q 292 717 267 744 q 355 667 318 689 q 428 620 392 646 q 490 550 464 594 q 515 444 515 506 q 465 310 515 356 q 325 265 414 265 q 292 267 303 265 q 265 278 282 269 q 231 292 247 286 q 298 249 240 281 q 396 173 356 217 q 436 69 436 129 q 360 -67 436 -14 q 194 -121 283 -121 q 63 -79 117 -121 q 10 39 10 -37 m 178 431 q 304 321 178 321 q 436 439 436 321 q 406 525 436 493 q 315 557 375 557 q 217 526 257 557 q 178 431 178 494 z "},"":{"ha":332,"x_min":0,"x_max":333,"o":"m 0 647 q 30 692 0 672 q 92 713 60 713 q 133 674 133 713 q 108 628 133 650 q 51 606 82 606 q 0 647 0 606 m 200 618 q 230 663 200 643 q 292 683 260 683 q 333 644 333 683 q 308 599 333 621 q 251 576 282 576 q 200 618 200 576 z "},"":{"ha":822,"x_min":110,"x_max":793,"o":"m 110 497 q 217 765 110 669 q 454 861 324 861 q 689 766 585 861 q 793 503 793 671 q 686 235 793 331 q 449 139 579 139 q 214 234 318 139 q 110 497 110 329 m 149 497 q 232 267 149 357 q 449 178 315 178 q 668 268 582 178 q 754 503 754 358 q 671 733 754 643 q 454 822 588 822 q 235 732 321 822 q 149 497 149 642 m 340 415 l 340 599 q 372 694 340 664 q 453 725 403 725 q 538 692 510 725 q 567 626 567 658 q 546 603 567 603 q 525 619 528 603 q 454 688 514 688 q 382 599 382 688 l 382 415 q 457 326 382 326 q 508 351 492 326 q 525 394 525 375 q 543 411 525 411 q 567 392 567 411 q 534 319 564 347 q 453 290 504 290 q 340 415 340 290 z "},"":{"ha":532,"x_min":146,"x_max":624,"o":"m 146 703 q 235 897 146 793 q 415 1000 324 1000 q 478 980 453 1000 q 503 928 503 960 q 456 886 503 886 q 461 919 461 908 q 413 975 461 975 q 280 875 347 975 q 213 699 213 775 q 239 661 213 661 q 443 874 301 661 q 482 849 482 864 q 453 790 482 840 q 425 714 425 740 q 433 684 425 697 q 458 671 442 671 q 529 711 486 671 q 614 825 572 751 l 624 815 q 539 688 594 738 q 432 638 483 638 q 379 658 397 638 q 361 706 361 678 q 364 735 361 713 q 218 621 279 621 q 166 642 186 621 q 146 703 146 663 z "},"":{"ha":604,"x_min":8,"x_max":488,"o":"m 8 219 q 152 313 76 249 q 272 439 228 376 q 279 408 279 428 q 44 204 279 326 l 104 163 q 167 128 125 149 q 269 83 208 107 q 229 61 250 61 q 99 119 179 61 q 8 219 19 178 m 217 219 q 360 313 285 249 q 481 439 436 376 q 488 408 488 428 q 253 204 488 326 q 313 163 292 176 q 375 128 333 149 q 478 83 417 107 q 438 61 458 61 q 308 119 388 61 q 217 219 228 178 z "},"":{"ha":926,"x_min":61,"x_max":854,"o":"m 61 256 q 481 324 101 324 q 696 319 600 324 q 735 392 703 363 q 738 362 735 388 q 743 317 742 336 q 854 311 767 317 q 746 279 813 292 q 747 254 746 271 q 747 229 747 238 q 679 46 747 63 q 688 87 685 69 q 692 127 690 104 q 694 164 693 150 q 694 215 694 178 l 694 274 q 625 271 669 271 q 439 269 543 269 l 293 269 q 192 266 253 269 q 61 256 131 263 z "},"":{"ha":672,"x_min":49,"x_max":544,"o":"m 49 200 q 311 268 74 268 q 544 256 424 268 q 455 224 511 233 q 261 215 399 215 q 49 200 142 215 z "},"":{"ha":822,"x_min":110,"x_max":793,"o":"m 110 497 q 217 765 110 669 q 454 861 324 861 q 689 766 585 861 q 793 503 793 671 q 686 235 793 331 q 449 139 579 139 q 214 234 318 139 q 110 497 110 329 m 149 497 q 232 267 149 357 q 449 178 315 178 q 668 268 582 178 q 754 503 754 358 q 671 733 754 643 q 454 822 588 822 q 235 732 321 822 q 149 497 149 642 m 349 311 l 349 706 q 355 718 349 713 q 369 724 361 724 l 457 724 q 576 607 576 724 q 493 493 576 511 l 574 321 q 576 311 576 315 q 557 292 576 292 q 545 297 551 292 q 535 308 539 303 q 528 322 532 314 l 522 332 l 449 490 l 392 490 l 392 311 q 371 292 392 292 q 349 311 349 292 m 392 526 l 457 526 q 533 607 533 526 q 457 686 533 686 l 392 686 l 392 526 z "},"":{"ha":368,"x_min":128,"x_max":403,"o":"m 128 625 q 179 729 128 678 q 297 781 231 781 q 403 706 403 781 q 349 601 403 653 q 228 550 296 550 q 128 625 128 550 m 172 625 q 235 574 172 574 q 319 619 278 574 q 361 707 361 665 q 297 757 361 757 q 213 713 253 757 q 172 625 172 668 z "},"":{"ha":624,"x_min":75,"x_max":521,"o":"m 75 117 q 311 171 97 171 q 521 161 436 171 q 308 129 468 129 q 75 117 165 129 m 75 401 q 274 456 94 451 l 274 511 q 310 625 274 582 q 321 456 319 558 q 521 446 419 454 q 392 413 471 413 l 321 413 q 260 229 317 249 q 274 413 274 304 q 75 401 153 413 z "},"":{"ha":492,"x_min":100,"x_max":471,"o":"m 100 485 q 157 521 100 521 q 228 511 179 521 q 352 675 296 571 q 408 865 408 779 q 340 960 408 960 q 276 921 300 960 q 251 824 251 882 q 261 774 251 801 l 250 774 q 210 796 222 782 q 197 838 197 810 q 242 940 197 896 q 351 983 286 983 q 435 947 403 983 q 468 856 468 910 q 410 668 468 768 q 272 503 351 568 l 283 500 q 410 478 378 478 q 471 503 432 478 q 392 422 450 422 q 257 463 351 422 l 231 474 q 153 444 186 444 q 115 456 129 444 q 100 485 100 467 m 151 497 q 132 483 132 497 q 151 469 132 469 q 194 488 165 469 q 151 497 169 497 z "},"":{"ha":408,"x_min":113,"x_max":442,"o":"m 113 538 q 129 590 113 567 q 175 614 146 614 q 194 611 186 614 q 171 546 171 592 q 189 488 171 513 q 238 464 207 464 q 311 507 278 464 q 344 614 344 550 q 263 740 344 719 q 347 813 314 763 q 379 908 379 864 q 322 974 379 974 q 271 954 293 974 q 249 901 249 935 q 260 856 249 882 q 226 833 249 833 q 205 851 213 833 q 197 890 197 869 q 238 968 197 939 q 331 997 278 997 q 409 973 376 997 q 442 906 442 949 q 409 812 442 860 q 328 747 376 764 q 401 692 378 731 q 425 614 425 654 q 368 491 425 546 q 231 436 311 436 q 142 467 171 436 q 113 538 113 499 z "},"":{"ha":174,"x_min":122,"x_max":297,"o":"m 122 606 q 176 704 122 635 q 267 774 229 774 q 297 731 293 774 q 142 569 194 642 q 122 606 122 579 z "},"":{"ha":811,"x_min":-56,"x_max":735,"o":"m -56 -336 q 6 -161 -40 -281 q 83 101 51 -42 q 146 494 115 244 q 152 513 147 508 q 172 518 157 518 q 222 499 206 518 q 239 454 239 481 q 172 83 172 156 q 213 14 172 14 q 251 28 231 14 q 292 69 271 42 q 331 123 313 96 q 372 190 350 150 l 407 258 l 440 325 q 465 376 458 365 q 532 340 532 364 q 509 284 532 336 q 463 164 486 232 q 439 56 439 96 q 485 0 439 0 q 600 62 532 0 q 717 225 668 124 l 735 213 q 610 30 690 101 q 456 -42 531 -42 q 358 61 358 -42 q 368 131 358 89 q 186 -42 271 -42 q 128 -18 151 -42 q -12 -389 24 -389 q -42 -367 -29 -389 q -56 -336 -56 -344 z "},"":{"ha":894,"x_min":85,"x_max":849,"o":"m 85 467 q 155 641 85 564 q 320 757 225 718 q 517 804 415 796 q 504 983 514 907 q 544 994 526 994 q 574 982 563 994 q 589 945 585 969 q 594 899 593 921 q 596 847 596 878 q 597 803 596 815 l 656 794 q 647 983 653 918 q 683 994 664 994 q 733 775 722 994 q 849 729 800 753 q 822 706 844 719 q 792 692 800 692 q 735 721 790 692 q 736 650 736 697 q 732 285 736 450 q 723 43 728 121 q 714 -51 718 -35 q 676 -102 703 -83 q 619 -121 650 -121 q 632 30 624 -112 q 648 384 640 172 q 656 751 656 596 l 656 757 q 599 771 632 764 q 603 464 603 667 q 598 199 603 321 q 588 19 593 78 q 579 -51 583 -39 q 531 -101 568 -81 q 457 -121 494 -121 q 472 46 461 -69 q 486 217 482 161 q 401 224 444 218 q 297 248 357 231 q 193 291 238 265 q 117 363 149 317 q 85 467 85 408 z "},"":{"ha":290,"x_min":53,"x_max":169,"o":"m 53 210 q 79 249 53 232 q 133 267 106 267 q 169 233 169 267 q 147 192 169 213 q 97 172 124 172 q 53 210 53 172 z "},"":{"ha":301,"x_min":28,"x_max":275,"o":"m 28 -190 q 58 -144 28 -167 q 117 -207 72 -207 q 194 -165 156 -207 q 232 -86 232 -124 q 208 -51 232 -51 q 142 -80 188 -51 q 90 -108 96 -108 q 76 -100 82 -108 q 71 -83 71 -92 q 100 -39 71 -79 q 144 15 129 1 l 193 53 l 119 -60 q 213 -26 167 -26 q 275 -85 275 -26 q 226 -192 275 -144 q 113 -240 176 -240 q 51 -226 74 -240 q 28 -190 28 -211 z "},"":{"ha":360,"x_min":92,"x_max":354,"o":"m 92 469 l 108 469 q 115 469 111 469 q 121 468 119 468 q 190 475 151 468 q 247 699 215 532 q 285 889 278 865 q 214 853 229 853 q 193 878 193 853 q 258 924 213 888 q 339 996 304 960 l 347 996 q 354 974 354 989 q 346 928 354 958 q 321 810 340 904 l 294 678 l 276 592 q 238 482 258 507 q 256 483 244 483 q 328 439 319 483 q 268 442 292 442 q 206 439 243 442 q 151 436 169 436 q 92 469 114 436 z "},"":{"ha":388,"x_min":149,"x_max":493,"o":"m 149 711 q 225 898 149 796 q 385 1000 301 1000 q 426 981 417 1000 q 456 969 446 981 q 467 943 467 957 q 447 892 467 935 q 428 821 428 850 q 456 799 428 799 q 493 803 460 799 q 436 775 478 775 q 400 793 410 775 q 322 673 368 718 q 226 628 276 628 q 169 651 190 628 q 149 711 149 674 m 211 718 q 249 669 211 669 q 321 713 281 669 q 388 818 361 756 q 382 874 382 840 q 400 963 382 936 q 268 874 325 963 q 211 718 211 786 z "},"":{"ha":631,"x_min":71,"x_max":550,"o":"m 71 408 q 78 439 71 428 q 198 313 122 376 q 342 219 274 249 q 251 119 331 178 q 121 61 171 61 q 81 83 100 61 q 183 128 142 107 q 246 163 225 149 l 306 204 q 71 408 71 326 m 279 408 q 286 439 279 428 q 406 313 331 376 q 550 219 482 249 q 459 119 539 178 q 329 61 379 61 q 289 83 308 61 q 392 128 350 107 q 454 163 433 149 l 514 204 q 279 408 279 326 z "},"":{"ha":892,"x_min":63,"x_max":818,"o":"m 63 -121 q 369 354 156 -28 q 660 938 582 736 q 706 979 667 958 q 776 1000 744 1000 q 576 601 750 933 q 319 135 403 268 q 179 -56 240 8 q 63 -121 118 -121 m 92 469 l 108 469 q 115 469 111 469 q 121 468 119 468 q 190 475 151 468 q 247 699 215 532 q 285 889 278 865 q 214 853 229 853 q 193 878 193 853 q 258 924 213 888 q 339 996 304 960 l 347 996 q 354 974 354 989 q 346 928 354 958 q 321 810 340 904 l 294 678 l 276 592 q 238 482 258 507 q 256 483 244 483 q 328 439 319 483 q 268 442 292 442 q 206 439 243 442 q 151 436 169 436 q 92 469 114 436 m 486 175 q 500 210 486 196 q 790 524 729 413 q 808 504 808 521 q 801 473 808 500 q 777 378 793 446 q 744 228 761 311 l 768 228 q 818 235 783 228 q 747 186 783 186 l 738 186 q 708 -36 708 40 q 642 0 642 -32 q 676 186 642 26 q 663 187 671 186 q 650 188 654 188 l 626 188 q 486 175 542 188 m 563 229 q 622 232 596 232 q 642 231 629 232 q 661 231 656 231 l 688 231 l 694 263 q 725 388 711 346 l 664 328 q 563 229 575 243 z "},"":{"ha":969,"x_min":71,"x_max":850,"o":"m 71 -121 q 377 354 164 -28 q 668 938 590 736 q 714 979 675 958 q 785 1000 753 1000 q 585 601 758 933 q 328 135 411 268 q 188 -56 249 8 q 71 -121 126 -121 m 100 469 l 117 469 q 124 469 119 469 q 129 468 128 468 q 199 475 160 468 q 255 699 224 532 q 293 889 286 865 q 222 853 238 853 q 201 878 201 853 q 267 924 221 888 q 347 996 313 960 l 356 996 q 363 974 363 989 q 354 928 363 958 q 330 810 349 904 q 303 678 311 717 l 285 592 q 246 482 267 507 q 264 483 253 483 q 336 439 328 483 q 276 442 300 442 q 215 439 251 442 q 160 436 178 436 q 100 469 124 436 m 479 26 q 536 63 479 63 q 607 53 558 63 q 731 217 675 113 q 788 407 788 321 q 719 501 788 501 q 655 463 679 501 q 631 365 631 424 q 640 315 631 343 l 629 315 q 589 338 601 324 q 576 379 576 351 q 621 481 576 438 q 731 525 665 525 q 815 488 782 525 q 847 397 847 451 q 789 210 847 310 q 651 44 731 110 l 663 42 q 789 19 757 19 q 850 44 811 19 q 771 -36 831 -36 q 636 4 731 -36 l 610 15 q 532 -14 567 -14 q 494 -3 508 -14 q 479 26 479 8 m 531 39 q 511 25 511 39 q 531 11 511 11 q 574 29 544 11 q 531 39 549 39 z "},"":{"ha":951,"x_min":115,"x_max":878,"o":"m 115 538 q 132 590 115 567 q 178 614 149 614 q 197 611 189 614 q 174 546 174 592 q 192 488 174 513 q 240 464 210 464 q 314 507 281 464 q 347 614 347 550 q 265 740 347 719 q 349 813 317 763 q 382 908 382 864 q 325 974 382 974 q 274 954 296 974 q 251 901 251 935 q 263 856 251 882 q 229 833 251 833 q 208 851 215 833 q 200 890 200 869 q 240 968 200 939 q 333 997 281 997 q 412 973 379 997 q 444 906 444 949 q 412 812 444 860 q 331 747 379 764 q 404 692 381 731 q 428 614 428 654 q 371 491 428 546 q 233 436 314 436 q 144 467 174 436 q 115 538 115 499 m 122 -121 q 428 354 215 -28 q 719 938 642 736 q 765 979 726 958 q 836 1000 804 1000 q 636 601 810 933 q 379 135 463 268 q 239 -56 300 8 q 122 -121 178 -121 m 546 175 q 560 210 546 196 q 850 524 789 413 q 868 504 868 521 q 860 473 868 500 q 837 378 853 446 q 804 228 821 311 l 828 228 q 878 235 843 228 q 807 186 843 186 l 797 186 q 768 -36 768 40 q 701 0 701 -32 q 736 186 701 26 q 722 187 731 186 q 710 188 714 188 l 686 188 q 546 175 603 188 m 622 229 q 682 232 656 232 q 702 231 689 232 q 721 231 715 231 l 747 231 l 754 263 q 785 388 771 346 l 724 328 q 622 229 635 243 z "},"":{"ha":576,"x_min":-69,"x_max":410,"o":"m -69 -224 q -47 -127 -69 -172 q 8 -44 -25 -82 l 79 28 q 150 113 115 64 q 201 214 185 161 q 217 286 210 239 q 236 356 225 333 q 271 332 263 343 q 279 297 279 321 q 252 190 279 243 q 186 94 225 138 l 107 7 q 40 -94 67 -37 q 14 -212 14 -151 q 44 -317 14 -281 q 124 -354 75 -354 q 267 -275 200 -354 q 333 -89 333 -196 q 324 -18 333 -60 q 392 -49 374 -25 q 410 -114 410 -72 q 326 -306 410 -224 q 118 -389 243 -389 q -19 -346 31 -389 q -69 -224 -69 -303 m 217 478 q 239 522 217 501 q 289 542 261 542 q 320 532 307 542 q 333 506 333 522 q 308 465 333 482 q 253 447 282 447 q 217 478 217 447 z "},"":{"ha":822,"x_min":-24,"x_max":796,"o":"m -24 -49 q 188 386 -24 56 q 38 393 103 393 l -11 393 q 133 465 15 465 q 233 456 169 465 q 451 759 340 617 q 625 961 561 901 q 692 1000 665 1000 q 765 956 721 1000 q 634 610 719 919 q 549 131 549 301 q 600 19 549 19 q 782 225 676 19 l 796 211 q 688 28 753 97 q 556 -42 624 -42 q 447 144 447 -42 q 471 351 447 233 q 265 379 382 365 q 24 -121 129 129 q -24 -49 -24 -94 m 301 443 l 403 419 q 481 400 468 404 q 647 913 539 674 q 301 443 521 835 m 604 1200 q 635 1243 608 1243 q 726 1174 672 1243 q 779 1075 779 1104 q 760 1039 779 1049 q 604 1200 707 1111 z "},"":{"ha":822,"x_min":-24,"x_max":892,"o":"m -24 -49 q 188 386 -24 56 q 38 393 103 393 l -11 393 q 133 465 15 465 q 233 456 169 465 q 451 759 340 617 q 625 961 561 901 q 692 1000 665 1000 q 765 956 721 1000 q 634 610 719 919 q 549 131 549 301 q 600 19 549 19 q 782 225 676 19 l 796 211 q 688 28 753 97 q 556 -42 624 -42 q 447 144 447 -42 q 471 351 447 233 q 265 379 382 365 q 24 -121 129 129 q -24 -49 -24 -94 m 301 443 l 403 419 q 481 400 468 404 q 647 913 539 674 q 301 443 521 835 m 717 1075 q 770 1174 717 1104 q 861 1243 824 1243 q 892 1200 888 1243 q 736 1039 789 1111 q 717 1075 717 1049 z "},"":{"ha":822,"x_min":-24,"x_max":864,"o":"m -24 -49 q 188 386 -24 56 q 38 393 103 393 l -11 393 q 133 465 15 465 q 233 456 169 465 q 451 759 340 617 q 625 961 561 901 q 692 1000 665 1000 q 765 956 721 1000 q 634 610 719 919 q 549 131 549 301 q 600 19 549 19 q 782 225 676 19 l 796 211 q 688 28 753 97 q 556 -42 624 -42 q 447 144 447 -42 q 471 351 447 233 q 265 379 382 365 q 24 -121 129 129 q -24 -49 -24 -94 m 301 443 l 403 419 q 481 400 468 404 q 647 913 539 674 q 301 443 521 835 m 581 1108 q 643 1188 581 1146 q 739 1231 706 1231 q 818 1176 772 1231 q 864 1076 864 1121 q 840 1033 864 1044 q 738 1161 811 1093 q 594 1082 646 1128 q 581 1108 581 1090 z "},"":{"ha":822,"x_min":-24,"x_max":944,"o":"m -24 -49 q 188 386 -24 56 q 38 393 103 393 l -11 393 q 133 465 15 465 q 233 456 169 465 q 451 759 340 617 q 625 961 561 901 q 692 1000 665 1000 q 765 956 721 1000 q 634 610 719 919 q 549 131 549 301 q 600 19 549 19 q 782 225 676 19 l 796 211 q 688 28 753 97 q 556 -42 624 -42 q 447 144 447 -42 q 471 351 447 233 q 265 379 382 365 q 24 -121 129 129 q -24 -49 -24 -94 m 301 443 l 403 419 q 481 400 468 404 q 647 913 539 674 q 301 443 521 835 m 518 1054 q 633 1118 567 1118 q 759 1088 669 1118 q 903 1057 849 1057 q 944 1061 924 1057 q 836 1011 900 1011 q 712 1038 797 1011 q 582 1065 626 1065 q 518 1054 546 1065 z "},"":{"ha":822,"x_min":-24,"x_max":904,"o":"m -24 -49 q 188 386 -24 56 q 38 393 103 393 l -11 393 q 133 465 15 465 q 233 456 169 465 q 451 759 340 617 q 625 961 561 901 q 692 1000 665 1000 q 765 956 721 1000 q 634 610 719 919 q 549 131 549 301 q 600 19 549 19 q 782 225 676 19 l 796 211 q 688 28 753 97 q 556 -42 624 -42 q 447 144 447 -42 q 471 351 447 233 q 265 379 382 365 q 24 -121 129 129 q -24 -49 -24 -94 m 301 443 l 403 419 q 481 400 468 404 q 647 913 539 674 q 301 443 521 835 m 571 1117 q 601 1162 571 1142 q 663 1182 631 1182 q 704 1143 704 1182 q 678 1097 704 1119 q 622 1075 653 1075 q 571 1117 571 1075 m 771 1088 q 801 1133 771 1113 q 863 1153 831 1153 q 904 1114 904 1153 q 878 1068 904 1090 q 822 1046 853 1046 q 771 1088 771 1046 z "},"":{"ha":822,"x_min":-24,"x_max":903,"o":"m -24 -49 q 188 386 -24 56 q 38 393 103 393 l -11 393 q 133 465 15 465 q 233 456 169 465 q 451 759 340 617 q 625 961 561 901 q 692 1000 665 1000 q 765 956 721 1000 q 634 610 719 919 q 549 131 549 301 q 600 19 549 19 q 782 225 676 19 l 796 211 q 688 28 753 97 q 556 -42 624 -42 q 447 144 447 -42 q 471 351 447 233 q 265 379 382 365 q 24 -121 129 129 q -24 -49 -24 -94 m 301 443 l 403 419 q 481 400 468 404 q 647 913 539 674 q 301 443 521 835 m 628 1122 q 679 1226 628 1175 q 797 1278 731 1278 q 903 1203 903 1278 q 849 1099 903 1150 q 728 1047 796 1047 q 628 1122 628 1047 m 682 1132 q 697 1093 682 1111 q 740 1075 713 1075 q 815 1116 779 1075 q 851 1194 851 1157 q 835 1231 851 1215 q 790 1246 819 1246 q 716 1208 750 1246 q 682 1132 682 1171 z "},"":{"ha":1038,"x_min":-24,"x_max":1121,"o":"m -24 -49 q 188 386 -24 56 q 38 393 103 393 l -11 393 q 133 465 15 465 q 233 456 169 465 q 515 840 383 681 q 692 1000 647 1000 q 1121 968 897 1000 q 885 918 1103 918 q 742 921 828 918 q 625 576 689 817 q 735 569 682 575 q 848 555 788 564 q 914 544 908 546 q 678 494 896 494 q 604 496 624 494 q 549 131 549 260 q 553 74 549 97 q 752 53 607 65 q 931 32 897 40 q 694 -18 913 -18 q 488 -12 540 -18 q 447 144 447 28 q 471 351 447 233 q 265 379 382 365 q 24 -121 129 129 q -24 -49 -24 -94 m 301 443 l 403 419 q 481 400 468 404 q 647 913 539 674 q 301 443 521 835 z "},"":{"ha":781,"x_min":31,"x_max":735,"o":"m 31 218 q 83 494 31 351 q 217 747 136 636 q 401 928 297 857 q 601 999 506 999 q 729 879 729 999 q 676 688 729 793 q 568 583 622 583 q 525 615 540 583 q 625 757 576 674 q 674 894 674 840 q 606 957 674 957 q 399 833 510 957 q 215 528 289 708 q 142 194 142 347 q 190 3 142 81 q 338 -74 239 -74 q 551 14 444 -74 q 715 225 658 101 l 735 211 q 604 24 678 101 l 550 -60 q 643 -26 597 -26 q 706 -85 706 -26 q 656 -192 706 -144 q 543 -240 607 -240 q 481 -226 504 -240 q 458 -190 458 -211 q 489 -144 458 -167 q 547 -207 503 -207 q 624 -165 586 -207 q 663 -86 663 -124 q 639 -51 663 -51 q 572 -80 618 -51 q 521 -108 526 -108 q 507 -100 513 -108 q 501 -83 501 -92 q 526 -44 501 -79 q 304 -121 418 -121 q 99 -22 167 -121 q 31 218 31 76 z "},"":{"ha":692,"x_min":-21,"x_max":683,"o":"m -21 132 q 85 369 -21 261 q 339 492 190 478 q 233 711 233 579 q 316 912 233 825 q 519 999 399 999 q 637 960 596 999 q 678 849 678 921 q 640 706 678 774 q 567 639 603 639 q 515 683 536 639 q 632 876 632 785 q 533 967 632 967 q 388 887 440 967 q 335 688 335 807 q 415 478 335 547 q 195 350 282 456 q 108 128 108 244 q 152 -12 108 49 q 286 -74 196 -74 q 500 14 393 -74 q 664 225 607 101 l 683 211 q 494 -30 606 61 q 250 -121 383 -121 q 53 -48 128 -121 q -21 132 -21 25 m 426 1200 q 457 1243 431 1243 q 548 1174 494 1243 q 601 1075 601 1104 q 582 1039 601 1049 q 426 1200 529 1111 z "},"":{"ha":692,"x_min":-21,"x_max":751,"o":"m -21 132 q 85 369 -21 261 q 339 492 190 478 q 233 711 233 579 q 316 912 233 825 q 519 999 399 999 q 637 960 596 999 q 678 849 678 921 q 640 706 678 774 q 567 639 603 639 q 515 683 536 639 q 632 876 632 785 q 533 967 632 967 q 388 887 440 967 q 335 688 335 807 q 415 478 335 547 q 195 350 282 456 q 108 128 108 244 q 152 -12 108 49 q 286 -74 196 -74 q 500 14 393 -74 q 664 225 607 101 l 683 211 q 494 -30 606 61 q 250 -121 383 -121 q 53 -48 128 -121 q -21 132 -21 25 m 576 1075 q 630 1174 576 1104 q 721 1243 683 1243 q 751 1200 747 1243 q 596 1039 649 1111 q 576 1075 576 1049 z "},"":{"ha":692,"x_min":-21,"x_max":749,"o":"m -21 132 q 85 369 -21 261 q 339 492 190 478 q 233 711 233 579 q 316 912 233 825 q 519 999 399 999 q 637 960 596 999 q 678 849 678 921 q 640 706 678 774 q 567 639 603 639 q 515 683 536 639 q 632 876 632 785 q 533 967 632 967 q 388 887 440 967 q 335 688 335 807 q 415 478 335 547 q 195 350 282 456 q 108 128 108 244 q 152 -12 108 49 q 286 -74 196 -74 q 500 14 393 -74 q 664 225 607 101 l 683 211 q 494 -30 606 61 q 250 -121 383 -121 q 53 -48 128 -121 q -21 132 -21 25 m 465 1108 q 528 1188 465 1146 q 624 1231 590 1231 q 703 1176 657 1231 q 749 1076 749 1121 q 725 1033 749 1044 q 622 1161 696 1093 q 479 1082 529 1128 q 465 1108 465 1090 z "},"":{"ha":692,"x_min":-21,"x_max":768,"o":"m -21 132 q 85 369 -21 261 q 339 492 190 478 q 233 711 233 579 q 316 912 233 825 q 519 999 399 999 q 637 960 596 999 q 678 849 678 921 q 640 706 678 774 q 567 639 603 639 q 515 683 536 639 q 632 876 632 785 q 533 967 632 967 q 388 887 440 967 q 335 688 335 807 q 415 478 335 547 q 195 350 282 456 q 108 128 108 244 q 152 -12 108 49 q 286 -74 196 -74 q 500 14 393 -74 q 664 225 607 101 l 683 211 q 494 -30 606 61 q 250 -121 383 -121 q 53 -48 128 -121 q -21 132 -21 25 m 435 1117 q 465 1162 435 1142 q 526 1182 494 1182 q 568 1143 568 1182 q 542 1097 568 1119 q 486 1075 517 1075 q 435 1117 435 1075 m 635 1088 q 665 1133 635 1113 q 726 1153 694 1153 q 768 1114 768 1153 q 742 1068 768 1090 q 686 1046 717 1046 q 635 1088 635 1046 z "},"":{"ha":638,"x_min":-53,"x_max":761,"o":"m -53 -122 q -31 -62 -49 -86 q 22 -28 -12 -39 q 89 -15 56 -18 q 174 -11 122 -11 q 321 493 232 115 q 426 918 410 871 q 114 890 242 914 q 397 997 133 997 q 761 968 565 997 q 626 919 713 919 q 475 918 518 919 q 338 225 372 365 q 221 -12 289 33 q 367 -26 261 -15 q 522 -39 474 -37 q 365 -99 463 -99 l 281 -99 q 188 -100 213 -99 q 113 -103 164 -101 q 24 -110 63 -106 q -53 -122 -14 -115 m 325 1200 q 356 1243 329 1243 q 447 1174 393 1243 q 500 1075 500 1104 q 481 1039 500 1049 q 325 1200 428 1111 z "},"":{"ha":638,"x_min":-53,"x_max":761,"o":"m -53 -122 q -31 -62 -49 -86 q 22 -28 -12 -39 q 89 -15 56 -18 q 174 -11 122 -11 q 321 493 232 115 q 426 918 410 871 q 114 890 242 914 q 397 997 133 997 q 761 968 565 997 q 626 919 713 919 q 475 918 518 919 q 338 225 372 365 q 221 -12 289 33 q 367 -26 261 -15 q 522 -39 474 -37 q 365 -99 463 -99 l 281 -99 q 188 -100 213 -99 q 113 -103 164 -101 q 24 -110 63 -106 q -53 -122 -14 -115 m 475 1075 q 528 1174 475 1104 q 619 1243 582 1243 q 650 1200 646 1243 q 494 1039 547 1111 q 475 1075 475 1049 z "},"":{"ha":638,"x_min":-53,"x_max":761,"o":"m -53 -122 q -31 -62 -49 -86 q 22 -28 -12 -39 q 89 -15 56 -18 q 174 -11 122 -11 q 321 493 232 115 q 426 918 410 871 q 114 890 242 914 q 397 997 133 997 q 761 968 565 997 q 626 919 713 919 q 475 918 518 919 q 338 225 372 365 q 221 -12 289 33 q 367 -26 261 -15 q 522 -39 474 -37 q 365 -99 463 -99 l 281 -99 q 188 -100 213 -99 q 113 -103 164 -101 q 24 -110 63 -106 q -53 -122 -14 -115 m 367 1108 q 429 1188 367 1146 q 525 1231 492 1231 q 604 1176 558 1231 q 650 1076 650 1121 q 626 1033 650 1044 q 524 1161 597 1093 q 381 1082 431 1128 q 367 1108 367 1090 z "},"":{"ha":638,"x_min":-53,"x_max":761,"o":"m -53 -122 q -31 -62 -49 -86 q 22 -28 -12 -39 q 89 -15 56 -18 q 174 -11 122 -11 q 321 493 232 115 q 426 918 410 871 q 114 890 242 914 q 397 997 133 997 q 761 968 565 997 q 626 919 713 919 q 475 918 518 919 q 338 225 372 365 q 221 -12 289 33 q 367 -26 261 -15 q 522 -39 474 -37 q 365 -99 463 -99 l 281 -99 q 188 -100 213 -99 q 113 -103 164 -101 q 24 -110 63 -106 q -53 -122 -14 -115 m 335 1117 q 365 1162 335 1142 q 426 1182 394 1182 q 468 1143 468 1182 q 442 1097 468 1119 q 386 1075 417 1075 q 335 1117 335 1075 m 535 1088 q 565 1133 535 1113 q 626 1153 594 1153 q 668 1114 668 1153 q 642 1068 668 1090 q 586 1046 617 1046 q 535 1088 535 1046 z "},"":{"ha":908,"x_min":44,"x_max":894,"o":"m 44 381 q 218 446 65 436 q 319 747 275 626 q 428 878 369 878 q 467 864 447 878 q 313 449 390 688 q 540 436 419 449 q 397 396 485 396 l 296 396 q 167 -79 213 135 q 226 -85 200 -85 q 501 23 369 -85 q 713 297 633 131 q 792 635 792 464 q 715 880 792 797 q 507 963 639 963 q 280 885 371 963 q 189 692 189 807 q 196 640 189 661 q 113 718 113 640 q 244 910 113 819 q 549 1000 376 1000 q 810 896 725 1000 q 894 619 894 792 q 835 335 894 474 q 683 98 776 197 q 469 -61 589 -1 q 228 -121 349 -121 q 79 -58 124 -121 q 201 394 114 111 q 44 381 136 394 z "},"":{"ha":889,"x_min":64,"x_max":921,"o":"m 64 -121 q 119 72 83 -46 l 222 408 l 358 860 q 368 917 368 894 q 347 949 368 949 q 235 863 285 949 q 186 701 186 778 q 193 653 186 674 q 110 732 110 653 q 206 912 110 824 q 388 1000 303 1000 q 435 985 414 1000 q 473 935 457 969 q 500 869 489 901 q 521 777 511 836 q 535 678 531 718 q 549 567 540 639 q 610 100 578 307 q 721 569 635 269 q 833 932 807 869 q 868 977 843 954 q 921 1000 893 1000 q 743 408 840 786 q 644 -121 646 31 q 574 -95 600 -121 q 536 -8 547 -69 q 410 818 499 189 q 175 24 224 150 q 85 -118 129 -103 q 64 -121 75 -121 m 431 1054 q 546 1118 479 1118 q 672 1088 582 1118 q 815 1057 761 1057 q 857 1061 836 1057 q 749 1011 813 1011 q 624 1038 710 1011 q 494 1065 539 1065 q 431 1054 458 1065 z "},"":{"ha":865,"x_min":29,"x_max":836,"o":"m 29 224 q 82 495 29 354 q 217 746 135 636 q 403 927 299 856 q 604 999 507 999 q 688 982 656 999 l 672 982 q 491 908 586 982 q 322 720 396 833 q 200 467 249 607 q 151 204 151 328 q 198 5 151 83 q 338 -74 244 -74 q 567 53 461 -74 q 728 356 672 179 q 783 701 783 533 q 768 833 783 772 q 721 893 753 893 q 613 789 674 893 q 533 596 553 685 q 467 664 467 611 q 558 834 467 738 q 718 931 649 931 q 776 905 751 931 q 813 836 801 879 q 831 751 825 793 q 836 663 836 708 q 783 328 836 482 q 649 80 731 175 q 475 -68 568 -15 q 296 -121 382 -121 q 103 -26 176 -121 q 29 224 29 68 m 607 1200 q 638 1243 611 1243 q 728 1174 675 1243 q 782 1075 782 1104 q 763 1039 782 1049 q 607 1200 710 1111 z "},"":{"ha":865,"x_min":29,"x_max":958,"o":"m 29 224 q 82 495 29 354 q 217 746 135 636 q 403 927 299 856 q 604 999 507 999 q 688 982 656 999 l 672 982 q 491 908 586 982 q 322 720 396 833 q 200 467 249 607 q 151 204 151 328 q 198 5 151 83 q 338 -74 244 -74 q 567 53 461 -74 q 728 356 672 179 q 783 701 783 533 q 768 833 783 772 q 721 893 753 893 q 613 789 674 893 q 533 596 553 685 q 467 664 467 611 q 558 834 467 738 q 718 931 649 931 q 776 905 751 931 q 813 836 801 879 q 831 751 825 793 q 836 663 836 708 q 783 328 836 482 q 649 80 731 175 q 475 -68 568 -15 q 296 -121 382 -121 q 103 -26 176 -121 q 29 224 29 68 m 783 1075 q 837 1174 783 1104 q 928 1243 890 1243 q 958 1200 954 1243 q 803 1039 856 1111 q 783 1075 783 1049 z "},"":{"ha":865,"x_min":29,"x_max":863,"o":"m 29 224 q 82 495 29 354 q 217 746 135 636 q 403 927 299 856 q 604 999 507 999 q 688 982 656 999 l 672 982 q 491 908 586 982 q 322 720 396 833 q 200 467 249 607 q 151 204 151 328 q 198 5 151 83 q 338 -74 244 -74 q 567 53 461 -74 q 728 356 672 179 q 783 701 783 533 q 768 833 783 772 q 721 893 753 893 q 613 789 674 893 q 533 596 553 685 q 467 664 467 611 q 558 834 467 738 q 718 931 649 931 q 776 905 751 931 q 813 836 801 879 q 831 751 825 793 q 836 663 836 708 q 783 328 836 482 q 649 80 731 175 q 475 -68 568 -15 q 296 -121 382 -121 q 103 -26 176 -121 q 29 224 29 68 m 579 1108 q 642 1188 579 1146 q 738 1231 704 1231 q 817 1176 771 1231 q 863 1076 863 1121 q 839 1033 863 1044 q 736 1161 810 1093 q 593 1082 643 1128 q 579 1108 579 1090 z "},"":{"ha":865,"x_min":29,"x_max":949,"o":"m 29 224 q 82 495 29 354 q 217 746 135 636 q 403 927 299 856 q 604 999 507 999 q 688 982 656 999 l 672 982 q 491 908 586 982 q 322 720 396 833 q 200 467 249 607 q 151 204 151 328 q 198 5 151 83 q 338 -74 244 -74 q 567 53 461 -74 q 728 356 672 179 q 783 701 783 533 q 768 833 783 772 q 721 893 753 893 q 613 789 674 893 q 533 596 553 685 q 467 664 467 611 q 558 834 467 738 q 718 931 649 931 q 776 905 751 931 q 813 836 801 879 q 831 751 825 793 q 836 663 836 708 q 783 328 836 482 q 649 80 731 175 q 475 -68 568 -15 q 296 -121 382 -121 q 103 -26 176 -121 q 29 224 29 68 m 522 1054 q 638 1118 571 1118 q 763 1088 674 1118 q 907 1057 853 1057 q 949 1061 928 1057 q 840 1011 904 1011 q 716 1038 801 1011 q 586 1065 631 1065 q 522 1054 550 1065 z "},"":{"ha":865,"x_min":29,"x_max":875,"o":"m 29 224 q 82 495 29 354 q 217 746 135 636 q 403 927 299 856 q 604 999 507 999 q 688 982 656 999 l 672 982 q 491 908 586 982 q 322 720 396 833 q 200 467 249 607 q 151 204 151 328 q 198 5 151 83 q 338 -74 244 -74 q 567 53 461 -74 q 728 356 672 179 q 783 701 783 533 q 768 833 783 772 q 721 893 753 893 q 613 789 674 893 q 533 596 553 685 q 467 664 467 611 q 558 834 467 738 q 718 931 649 931 q 776 905 751 931 q 813 836 801 879 q 831 751 825 793 q 836 663 836 708 q 783 328 836 482 q 649 80 731 175 q 475 -68 568 -15 q 296 -121 382 -121 q 103 -26 176 -121 q 29 224 29 68 m 542 1117 q 572 1162 542 1142 q 633 1182 601 1182 q 675 1143 675 1182 q 649 1097 675 1119 q 593 1075 624 1075 q 542 1117 542 1075 m 742 1088 q 772 1133 742 1113 q 833 1153 801 1153 q 875 1114 875 1153 q 849 1068 875 1090 q 793 1046 824 1046 q 742 1088 742 1046 z "},"":{"ha":524,"x_min":67,"x_max":394,"o":"m 67 60 q 174 232 67 115 q 78 392 78 335 q 83 417 78 406 q 210 268 135 346 q 383 424 300 358 q 311 294 374 357 l 249 231 l 322 157 q 394 28 383 93 q 221 183 311 93 l 210 193 q 72 35 131 114 q 67 60 67 46 z "},"":{"ha":865,"x_min":29,"x_max":922,"o":"m 29 224 q 82 495 29 354 q 217 746 135 636 q 403 927 299 856 q 604 999 507 999 q 688 982 656 999 l 672 982 q 491 908 586 982 q 322 720 396 833 q 200 467 249 607 q 151 204 151 328 q 190 17 151 86 q 764 844 374 244 q 721 893 747 893 q 613 789 674 893 q 533 596 553 685 q 467 664 467 611 q 558 834 467 738 q 718 931 649 931 q 790 886 763 931 l 796 893 q 838 920 806 908 q 900 932 869 932 q 922 931 915 932 l 825 786 q 836 663 836 731 q 783 328 836 482 q 649 80 731 175 q 475 -68 568 -15 q 296 -121 382 -121 q 183 -94 236 -121 q 64 -140 119 -140 q 42 -137 56 -140 q 128 -54 72 -117 q 29 224 29 38 m 242 -44 q 338 -74 285 -74 q 567 53 461 -74 q 728 356 672 179 q 783 701 783 533 l 783 724 l 332 64 q 242 -44 283 -4 z "},"":{"ha":981,"x_min":35,"x_max":988,"o":"m 35 749 q 115 919 35 839 q 300 1000 196 1000 q 443 832 443 1000 q 358 457 443 728 q 272 90 272 186 q 301 -22 272 21 q 389 -65 329 -65 q 492 -28 443 -65 q 577 68 542 8 q 637 189 613 128 q 676 311 661 250 l 733 543 q 792 753 756 629 q 860 938 828 876 q 918 1000 892 1000 q 988 956 946 1000 q 839 581 946 926 q 732 58 732 236 q 757 -69 732 -35 q 843 -104 782 -104 q 751 -137 794 -137 q 670 -94 701 -137 q 639 10 639 -51 q 651 136 639 53 q 351 -121 533 -121 q 218 -68 265 -121 q 171 68 171 -15 q 258 442 171 154 q 344 839 344 731 q 267 961 344 961 q 159 882 199 961 q 119 721 119 803 q 131 653 119 679 q 35 749 35 653 m 585 1200 q 615 1243 589 1243 q 706 1174 653 1243 q 760 1075 760 1104 q 740 1039 760 1049 q 585 1200 688 1111 z "},"":{"ha":981,"x_min":35,"x_max":988,"o":"m 35 749 q 115 919 35 839 q 300 1000 196 1000 q 443 832 443 1000 q 358 457 443 728 q 272 90 272 186 q 301 -22 272 21 q 389 -65 329 -65 q 492 -28 443 -65 q 577 68 542 8 q 637 189 613 128 q 676 311 661 250 l 733 543 q 792 753 756 629 q 860 938 828 876 q 918 1000 892 1000 q 988 956 946 1000 q 839 581 946 926 q 732 58 732 236 q 757 -69 732 -35 q 843 -104 782 -104 q 751 -137 794 -137 q 670 -94 701 -137 q 639 10 639 -51 q 651 136 639 53 q 351 -121 533 -121 q 218 -68 265 -121 q 171 68 171 -15 q 258 442 171 154 q 344 839 344 731 q 267 961 344 961 q 159 882 199 961 q 119 721 119 803 q 131 653 119 679 q 35 749 35 653 m 643 1075 q 697 1174 643 1104 q 788 1243 750 1243 q 818 1200 814 1243 q 663 1039 715 1111 q 643 1075 643 1049 z "},"":{"ha":981,"x_min":35,"x_max":988,"o":"m 35 749 q 115 919 35 839 q 300 1000 196 1000 q 443 832 443 1000 q 358 457 443 728 q 272 90 272 186 q 301 -22 272 21 q 389 -65 329 -65 q 492 -28 443 -65 q 577 68 542 8 q 637 189 613 128 q 676 311 661 250 l 733 543 q 792 753 756 629 q 860 938 828 876 q 918 1000 892 1000 q 988 956 946 1000 q 839 581 946 926 q 732 58 732 236 q 757 -69 732 -35 q 843 -104 782 -104 q 751 -137 794 -137 q 670 -94 701 -137 q 639 10 639 -51 q 651 136 639 53 q 351 -121 533 -121 q 218 -68 265 -121 q 171 68 171 -15 q 258 442 171 154 q 344 839 344 731 q 267 961 344 961 q 159 882 199 961 q 119 721 119 803 q 131 653 119 679 q 35 749 35 653 m 535 1108 q 597 1188 535 1146 q 693 1231 660 1231 q 772 1176 726 1231 q 818 1076 818 1121 q 794 1033 818 1044 q 692 1161 765 1093 q 549 1082 599 1128 q 535 1108 535 1090 z "},"":{"ha":981,"x_min":35,"x_max":988,"o":"m 35 749 q 115 919 35 839 q 300 1000 196 1000 q 443 832 443 1000 q 358 457 443 728 q 272 90 272 186 q 301 -22 272 21 q 389 -65 329 -65 q 492 -28 443 -65 q 577 68 542 8 q 637 189 613 128 q 676 311 661 250 l 733 543 q 792 753 756 629 q 860 938 828 876 q 918 1000 892 1000 q 988 956 946 1000 q 839 581 946 926 q 732 58 732 236 q 757 -69 732 -35 q 843 -104 782 -104 q 751 -137 794 -137 q 670 -94 701 -137 q 639 10 639 -51 q 651 136 639 53 q 351 -121 533 -121 q 218 -68 265 -121 q 171 68 171 -15 q 258 442 171 154 q 344 839 344 731 q 267 961 344 961 q 159 882 199 961 q 119 721 119 803 q 131 653 119 679 q 35 749 35 653 m 532 1117 q 562 1162 532 1142 q 624 1182 592 1182 q 665 1143 665 1182 q 640 1097 665 1119 q 583 1075 614 1075 q 532 1117 532 1075 m 732 1088 q 762 1133 732 1113 q 824 1153 792 1153 q 865 1114 865 1153 q 840 1068 865 1090 q 783 1046 814 1046 q 732 1088 732 1046 z "},"":{"ha":925,"x_min":32,"x_max":985,"o":"m 32 749 q 113 919 32 839 q 297 1000 193 1000 q 406 958 371 1000 q 442 860 442 917 q 395 646 442 814 q 349 399 349 478 q 446 265 349 265 q 608 365 533 265 q 740 611 683 465 q 907 1000 835 1000 q 985 956 943 1000 q 879 735 915 844 q 756 269 843 625 l 728 164 q 697 62 718 125 q 657 -40 676 -1 q 606 -125 638 -78 q 540 -198 575 -172 q 458 -242 506 -224 q 354 -260 410 -260 q 217 -225 271 -260 q 163 -129 163 -190 q 246 -25 163 -53 q 235 -100 235 -62 q 265 -192 235 -158 q 356 -225 296 -225 q 646 168 558 -225 l 671 293 l 704 453 q 403 210 578 210 q 251 375 251 210 q 299 621 251 450 q 346 853 346 792 q 267 961 346 961 q 157 882 197 961 q 117 721 117 803 q 128 653 117 679 q 32 749 32 653 m 656 1075 q 709 1174 656 1104 q 800 1243 763 1243 q 831 1200 826 1243 q 675 1039 728 1111 q 656 1075 656 1049 z "},"":{"ha":706,"x_min":43,"x_max":735,"o":"m 43 -51 q 63 25 43 -33 q 322 771 215 506 q 224 743 272 763 q 147 708 175 724 q 114 692 119 692 q 88 706 104 692 q 71 729 71 719 q 335 803 224 794 q 352 847 340 815 q 373 900 364 879 q 395 945 382 921 q 424 982 408 969 q 458 994 440 994 q 494 983 476 994 q 417 804 456 907 q 640 723 544 793 q 735 538 735 653 q 707 422 735 474 q 633 336 679 369 q 533 279 586 303 q 420 242 481 256 q 316 224 360 229 q 233 217 272 218 l 188 53 l 139 -121 q 72 -101 101 -121 q 43 -51 43 -81 m 240 243 q 385 275 317 251 q 513 336 454 299 q 607 432 572 374 q 642 561 642 490 q 574 717 642 664 q 406 775 507 771 q 240 243 339 593 z "},"":{"ha":593,"x_min":-60,"x_max":535,"o":"m -60 -160 q -18 0 -40 -133 l 29 296 q 97 620 57 458 q 213 891 138 782 q 389 1000 288 1000 q 494 959 453 1000 q 535 847 535 918 q 470 671 535 753 q 319 533 406 589 q 303 515 303 522 q 321 500 303 508 q 449 376 397 467 q 501 204 501 286 q 418 -15 501 92 q 240 -121 335 -121 q 169 -67 194 -121 q 143 61 143 -12 q 166 177 143 128 q 228 226 189 226 q 250 225 243 226 q 215 153 229 214 q 200 26 200 92 q 242 -93 200 -93 q 349 10 296 -93 q 403 224 403 114 q 373 372 403 300 q 294 481 343 443 q 267 517 267 501 q 300 564 267 535 q 378 643 349 610 q 433 733 407 676 q 460 849 460 789 q 378 963 460 963 q 247 853 301 963 q 163 585 193 744 q 105 265 132 426 q 38 -19 78 104 q -60 -160 -3 -142 z "},"":{"ha":606,"x_min":-36,"x_max":647,"o":"m -36 50 q 22 232 -36 132 q 171 404 79 332 q 349 476 263 476 q 439 447 403 476 q 475 372 475 418 q 407 313 475 313 q 414 361 414 338 q 346 439 414 439 q 216 369 285 439 q 103 206 147 299 q 60 46 60 114 q 97 -8 60 -8 q 156 15 122 -8 q 217 68 189 39 q 283 147 244 97 q 339 222 321 196 l 389 294 q 444 260 444 285 q 404 176 444 249 q 364 67 364 104 q 376 24 364 43 q 411 6 388 6 q 513 63 451 6 q 633 225 574 121 l 647 211 q 526 29 604 100 q 372 -42 447 -42 q 298 -13 324 -42 q 272 56 272 15 q 276 96 272 72 q 165 -26 214 13 q 67 -65 115 -65 q -8 -35 21 -65 q -36 50 -36 -6 m 296 731 q 326 774 300 774 q 417 704 364 774 q 471 606 471 635 q 451 569 471 579 q 296 731 399 642 z "},"":{"ha":606,"x_min":-36,"x_max":647,"o":"m -36 50 q 22 232 -36 132 q 171 404 79 332 q 349 476 263 476 q 439 447 403 476 q 475 372 475 418 q 407 313 475 313 q 414 361 414 338 q 346 439 414 439 q 216 369 285 439 q 103 206 147 299 q 60 46 60 114 q 97 -8 60 -8 q 156 15 122 -8 q 217 68 189 39 q 283 147 244 97 q 339 222 321 196 l 389 294 q 444 260 444 285 q 404 176 444 249 q 364 67 364 104 q 376 24 364 43 q 411 6 388 6 q 513 63 451 6 q 633 225 574 121 l 647 211 q 526 29 604 100 q 372 -42 447 -42 q 298 -13 324 -42 q 272 56 272 15 q 276 96 272 72 q 165 -26 214 13 q 67 -65 115 -65 q -8 -35 21 -65 q -36 50 -36 -6 m 394 615 q 448 714 394 644 q 539 783 501 783 q 569 740 565 783 q 414 579 467 651 q 394 615 394 589 z "},"":{"ha":606,"x_min":-36,"x_max":647,"o":"m -36 50 q 22 232 -36 132 q 171 404 79 332 q 349 476 263 476 q 439 447 403 476 q 475 372 475 418 q 407 313 475 313 q 414 361 414 338 q 346 439 414 439 q 216 369 285 439 q 103 206 147 299 q 60 46 60 114 q 97 -8 60 -8 q 156 15 122 -8 q 217 68 189 39 q 283 147 244 97 q 339 222 321 196 l 389 294 q 444 260 444 285 q 404 176 444 249 q 364 67 364 104 q 376 24 364 43 q 411 6 388 6 q 513 63 451 6 q 633 225 574 121 l 647 211 q 526 29 604 100 q 372 -42 447 -42 q 298 -13 324 -42 q 272 56 272 15 q 276 96 272 72 q 165 -26 214 13 q 67 -65 115 -65 q -8 -35 21 -65 q -36 50 -36 -6 m 308 639 q 371 719 308 676 q 467 761 433 761 q 546 706 500 761 q 592 607 592 651 q 568 564 592 575 q 465 692 539 624 q 322 613 372 658 q 308 639 308 621 z "},"":{"ha":606,"x_min":-36,"x_max":647,"o":"m -36 50 q 22 232 -36 132 q 171 404 79 332 q 349 476 263 476 q 439 447 403 476 q 475 372 475 418 q 407 313 475 313 q 414 361 414 338 q 346 439 414 439 q 216 369 285 439 q 103 206 147 299 q 60 46 60 114 q 97 -8 60 -8 q 156 15 122 -8 q 217 68 189 39 q 283 147 244 97 q 339 222 321 196 l 389 294 q 444 260 444 285 q 404 176 444 249 q 364 67 364 104 q 376 24 364 43 q 411 6 388 6 q 513 63 451 6 q 633 225 574 121 l 647 211 q 526 29 604 100 q 372 -42 447 -42 q 298 -13 324 -42 q 272 56 272 15 q 276 96 272 72 q 165 -26 214 13 q 67 -65 115 -65 q -8 -35 21 -65 q -36 50 -36 -6 m 194 594 q 310 658 243 658 q 435 628 346 658 q 579 597 525 597 q 621 601 600 597 q 513 551 576 551 q 388 578 474 551 q 258 606 303 606 q 194 594 222 606 z "},"":{"ha":606,"x_min":-36,"x_max":647,"o":"m -36 50 q 22 232 -36 132 q 171 404 79 332 q 349 476 263 476 q 439 447 403 476 q 475 372 475 418 q 407 313 475 313 q 414 361 414 338 q 346 439 414 439 q 216 369 285 439 q 103 206 147 299 q 60 46 60 114 q 97 -8 60 -8 q 156 15 122 -8 q 217 68 189 39 q 283 147 244 97 q 339 222 321 196 l 389 294 q 444 260 444 285 q 404 176 444 249 q 364 67 364 104 q 376 24 364 43 q 411 6 388 6 q 513 63 451 6 q 633 225 574 121 l 647 211 q 526 29 604 100 q 372 -42 447 -42 q 298 -13 324 -42 q 272 56 272 15 q 276 96 272 72 q 165 -26 214 13 q 67 -65 115 -65 q -8 -35 21 -65 q -36 50 -36 -6 m 214 647 q 244 692 214 672 q 306 713 274 713 q 347 674 347 713 q 322 628 347 650 q 265 606 296 606 q 214 647 214 606 m 414 618 q 444 663 414 643 q 506 683 474 683 q 547 644 547 683 q 522 599 547 621 q 465 576 496 576 q 414 618 414 576 z "},"":{"ha":606,"x_min":-36,"x_max":647,"o":"m -36 50 q 22 232 -36 132 q 171 404 79 332 q 349 476 263 476 q 439 447 403 476 q 475 372 475 418 q 407 313 475 313 q 414 361 414 338 q 346 439 414 439 q 216 369 285 439 q 103 206 147 299 q 60 46 60 114 q 97 -8 60 -8 q 156 15 122 -8 q 217 68 189 39 q 283 147 244 97 q 339 222 321 196 l 389 294 q 444 260 444 285 q 404 176 444 249 q 364 67 364 104 q 376 24 364 43 q 411 6 388 6 q 513 63 451 6 q 633 225 574 121 l 647 211 q 526 29 604 100 q 372 -42 447 -42 q 298 -13 324 -42 q 272 56 272 15 q 276 96 272 72 q 165 -26 214 13 q 67 -65 115 -65 q -8 -35 21 -65 q -36 50 -36 -6 m 300 626 q 351 731 300 681 q 469 782 403 782 q 575 707 575 782 q 522 603 575 654 q 400 551 468 551 q 300 626 300 551 m 354 636 q 369 597 354 615 q 413 579 385 579 q 488 620 451 579 q 524 699 524 661 q 508 735 524 719 q 463 750 492 750 q 388 713 422 750 q 354 636 354 675 z "},"":{"ha":754,"x_min":-36,"x_max":800,"o":"m -36 50 q 22 232 -36 132 q 171 404 79 332 q 349 476 263 476 q 444 418 424 476 q 626 500 538 500 q 713 415 713 500 q 604 236 713 314 q 368 146 496 158 q 363 96 363 122 q 472 -21 363 -21 q 643 50 557 -21 q 783 225 729 121 l 800 213 q 646 14 744 89 q 443 -61 547 -61 q 320 -19 364 -61 q 274 92 276 24 q 164 -27 213 11 q 67 -65 115 -65 q -8 -35 21 -65 q -36 50 -36 -6 m 60 46 q 97 -8 60 -8 q 276 138 161 -8 q 322 265 286 199 q 411 386 358 332 q 346 439 399 439 q 216 369 285 439 q 103 206 147 299 q 60 46 60 114 m 375 172 q 562 276 472 207 q 651 425 651 346 q 622 457 651 457 q 481 366 557 457 q 375 172 404 275 z "},"":{"ha":449,"x_min":-7,"x_max":493,"o":"m -7 100 q 91 353 -7 238 q 297 469 189 469 q 373 440 350 469 q 396 367 396 410 q 377 295 396 325 q 326 265 358 265 q 286 286 303 265 q 322 330 307 296 q 338 396 338 364 q 307 431 338 431 q 157 313 235 431 q 79 90 79 194 q 181 -25 79 -25 q 348 44 265 -25 q 475 226 431 114 l 493 213 q 357 13 447 94 l 310 -60 q 403 -26 357 -26 q 465 -85 465 -26 q 416 -192 465 -144 q 303 -240 367 -240 q 241 -226 264 -240 q 218 -190 218 -211 q 249 -144 218 -167 q 307 -207 263 -207 q 384 -165 346 -207 q 422 -86 422 -124 q 399 -51 422 -51 q 332 -80 378 -51 q 281 -108 286 -108 q 267 -100 272 -108 q 261 -83 261 -92 q 293 -33 261 -79 q 149 -78 218 -78 q 36 -32 79 -78 q -7 100 -7 14 z "},"":{"ha":463,"x_min":-19,"x_max":507,"o":"m -19 100 q 97 364 -19 228 q 333 500 214 500 q 419 415 419 500 q 311 236 419 314 q 75 146 203 158 q 69 96 69 122 q 179 -21 69 -21 q 350 50 264 -21 q 490 225 436 121 l 507 213 q 353 14 451 89 q 150 -61 254 -61 q 24 -16 68 -61 q -19 100 -19 29 m 82 172 q 269 276 179 207 q 358 425 358 346 q 329 457 358 457 q 188 366 264 457 q 82 172 111 275 m 239 742 q 269 785 243 785 q 360 715 307 785 q 414 617 414 646 q 394 581 414 590 q 239 742 342 653 z "},"":{"ha":463,"x_min":-19,"x_max":581,"o":"m -19 100 q 97 364 -19 228 q 333 500 214 500 q 419 415 419 500 q 311 236 419 314 q 75 146 203 158 q 69 96 69 122 q 179 -21 69 -21 q 350 50 264 -21 q 490 225 436 121 l 507 213 q 353 14 451 89 q 150 -61 254 -61 q 24 -16 68 -61 q -19 100 -19 29 m 82 172 q 269 276 179 207 q 358 425 358 346 q 329 457 358 457 q 188 366 264 457 q 82 172 111 275 m 406 632 q 459 731 406 661 q 550 800 513 800 q 581 757 576 800 q 425 596 478 668 q 406 632 406 606 z "},"":{"ha":463,"x_min":-19,"x_max":536,"o":"m -19 100 q 97 364 -19 228 q 333 500 214 500 q 419 415 419 500 q 311 236 419 314 q 75 146 203 158 q 69 96 69 122 q 179 -21 69 -21 q 350 50 264 -21 q 490 225 436 121 l 507 213 q 353 14 451 89 q 150 -61 254 -61 q 24 -16 68 -61 q -19 100 -19 29 m 82 172 q 269 276 179 207 q 358 425 358 346 q 329 457 358 457 q 188 366 264 457 q 82 172 111 275 m 253 639 q 315 719 253 676 q 411 761 378 761 q 490 706 444 761 q 536 607 536 651 q 513 564 536 575 q 410 692 483 624 q 267 613 317 658 q 253 639 253 621 z "},"":{"ha":463,"x_min":-19,"x_max":524,"o":"m -19 100 q 97 364 -19 228 q 333 500 214 500 q 419 415 419 500 q 311 236 419 314 q 75 146 203 158 q 69 96 69 122 q 179 -21 69 -21 q 350 50 264 -21 q 490 225 436 121 l 507 213 q 353 14 451 89 q 150 -61 254 -61 q 24 -16 68 -61 q -19 100 -19 29 m 82 172 q 269 276 179 207 q 358 425 358 346 q 329 457 358 457 q 188 366 264 457 q 82 172 111 275 m 190 647 q 220 692 190 672 q 282 713 250 713 q 324 674 324 713 q 298 628 324 650 q 242 606 272 606 q 190 647 190 606 m 390 618 q 420 663 390 643 q 482 683 450 683 q 524 644 524 683 q 498 599 524 621 q 442 576 472 576 q 390 618 390 576 z "},"":{"ha":335,"x_min":-7,"x_max":374,"o":"m -7 81 q 22 226 -7 135 q 100 394 51 318 q 193 471 149 471 q 224 440 224 471 q 188 364 224 424 q 115 228 151 304 q 79 96 79 153 q 95 30 79 47 q 147 13 111 13 q 361 225 256 13 l 374 211 q 259 29 335 94 q 100 -36 183 -36 q 21 -3 49 -36 q -7 81 -7 29 m 125 738 q 156 781 129 781 q 247 711 193 781 q 300 613 300 642 q 281 576 300 586 q 125 738 228 649 z "},"":{"ha":335,"x_min":-7,"x_max":403,"o":"m -7 81 q 22 226 -7 135 q 100 394 51 318 q 193 471 149 471 q 224 440 224 471 q 188 364 224 424 q 115 228 151 304 q 79 96 79 153 q 95 30 79 47 q 147 13 111 13 q 361 225 256 13 l 374 211 q 259 29 335 94 q 100 -36 183 -36 q 21 -3 49 -36 q -7 81 -7 29 m 228 606 q 281 704 228 635 q 372 774 335 774 q 403 731 399 774 q 247 569 300 642 q 228 606 228 579 z "},"":{"ha":335,"x_min":-7,"x_max":422,"o":"m -7 81 q 22 226 -7 135 q 100 394 51 318 q 193 471 149 471 q 224 440 224 471 q 188 364 224 424 q 115 228 151 304 q 79 96 79 153 q 95 30 79 47 q 147 13 111 13 q 361 225 256 13 l 374 211 q 259 29 335 94 q 100 -36 183 -36 q 21 -3 49 -36 q -7 81 -7 29 m 139 639 q 201 719 139 676 q 297 761 264 761 q 376 706 331 761 q 422 607 422 651 q 399 564 422 575 q 296 692 369 624 q 153 613 203 658 q 139 639 139 621 z "},"":{"ha":335,"x_min":-7,"x_max":415,"o":"m -7 81 q 22 226 -7 135 q 100 394 51 318 q 193 471 149 471 q 224 440 224 471 q 188 364 224 424 q 115 228 151 304 q 79 96 79 153 q 95 30 79 47 q 147 13 111 13 q 361 225 256 13 l 374 211 q 259 29 335 94 q 100 -36 183 -36 q 21 -3 49 -36 q -7 81 -7 29 m 82 647 q 112 692 82 672 q 174 713 142 713 q 215 674 215 713 q 190 628 215 650 q 133 606 164 606 q 82 647 82 606 m 282 618 q 312 663 282 643 q 374 683 342 683 q 415 644 415 683 q 390 599 415 621 q 333 576 364 576 q 282 618 282 576 z "},"":{"ha":657,"x_min":-22,"x_max":700,"o":"m -22 75 q 34 251 -22 151 q 180 426 90 351 q 351 500 269 500 q 413 457 413 500 q 410 438 413 451 q 357 458 394 458 q 219 388 288 458 q 113 233 151 318 q 75 92 75 149 q 88 43 75 61 q 125 25 101 25 q 277 139 186 25 q 426 407 368 253 q 489 679 489 569 q 483 739 489 711 q 324 707 388 725 q 347 750 324 733 q 398 773 371 767 q 474 786 425 779 q 353 972 444 892 q 407 999 374 999 q 508 940 465 999 q 572 797 551 882 q 699 814 664 803 q 656 770 678 781 q 581 753 633 760 q 586 688 586 721 q 508 369 586 589 q 431 79 431 150 q 469 19 431 19 q 578 77 515 19 q 683 225 642 135 l 700 213 q 581 35 660 107 q 431 -36 503 -36 q 361 -6 383 -36 q 339 68 339 25 q 365 217 339 115 q 219 29 294 100 q 82 -42 143 -42 q 10 -12 42 -42 q -22 75 -22 18 z "},"":{"ha":647,"x_min":-53,"x_max":689,"o":"m -53 10 q -28 75 -53 14 q 21 217 -4 136 q 46 351 46 299 q 110 381 72 381 q 147 344 147 381 q 103 161 147 297 q 392 406 263 406 q 468 369 442 406 q 494 281 494 332 q 466 164 494 235 q 438 61 438 93 q 479 8 438 8 q 674 225 565 8 l 689 207 q 449 -28 589 -28 q 376 -3 401 -28 q 351 61 351 21 q 372 155 351 89 q 392 254 392 221 q 336 322 392 322 q 265 296 303 322 q 197 239 226 269 q 128 150 168 208 q 72 64 89 92 l 21 -21 q -53 10 -31 -21 m 136 585 q 251 649 185 649 q 377 618 288 649 q 521 588 467 588 q 563 592 542 588 q 454 542 518 542 q 330 569 415 542 q 200 596 244 596 q 136 585 164 596 z "},"":{"ha":507,"x_min":-14,"x_max":550,"o":"m -14 82 q 37 259 -14 171 q 146 347 88 347 q 175 340 158 347 q 113 230 149 318 q 76 92 76 142 q 126 13 76 13 q 275 124 188 13 q 215 207 236 156 q 193 314 193 258 q 230 438 193 386 q 329 489 267 489 q 425 382 425 489 q 332 135 425 274 q 385 121 357 121 q 468 145 425 121 q 533 221 511 169 l 550 207 q 475 117 524 146 q 375 88 426 88 q 308 101 338 88 q 96 -44 197 -44 q 13 -10 39 -44 q -14 82 -14 25 m 253 310 q 300 160 253 215 q 381 374 381 279 q 339 451 381 451 q 281 409 308 451 q 253 310 253 367 m 260 731 q 290 774 264 774 q 381 704 328 774 q 435 606 435 635 q 415 569 435 579 q 260 731 363 642 z "},"":{"ha":507,"x_min":-14,"x_max":639,"o":"m -14 82 q 37 259 -14 171 q 146 347 88 347 q 175 340 158 347 q 113 230 149 318 q 76 92 76 142 q 126 13 76 13 q 275 124 188 13 q 215 207 236 156 q 193 314 193 258 q 230 438 193 386 q 329 489 267 489 q 425 382 425 489 q 332 135 425 274 q 385 121 357 121 q 468 145 425 121 q 533 221 511 169 l 550 207 q 475 117 524 146 q 375 88 426 88 q 308 101 338 88 q 96 -44 197 -44 q 13 -10 39 -44 q -14 82 -14 25 m 253 310 q 300 160 253 215 q 381 374 381 279 q 339 451 381 451 q 281 409 308 451 q 253 310 253 367 m 464 611 q 517 710 464 640 q 608 779 571 779 q 639 736 635 779 q 483 575 536 647 q 464 611 464 585 z "},"":{"ha":507,"x_min":-14,"x_max":550,"o":"m -14 82 q 37 259 -14 171 q 146 347 88 347 q 175 340 158 347 q 113 230 149 318 q 76 92 76 142 q 126 13 76 13 q 275 124 188 13 q 215 207 236 156 q 193 314 193 258 q 230 438 193 386 q 329 489 267 489 q 425 382 425 489 q 332 135 425 274 q 385 121 357 121 q 468 145 425 121 q 533 221 511 169 l 550 207 q 475 117 524 146 q 375 88 426 88 q 308 101 338 88 q 96 -44 197 -44 q 13 -10 39 -44 q -14 82 -14 25 m 246 639 q 308 719 246 676 q 404 761 371 761 q 483 706 438 761 q 529 607 529 651 q 506 564 529 575 q 403 692 476 624 q 260 613 310 658 q 246 639 246 621 m 253 310 q 300 160 253 215 q 381 374 381 279 q 339 451 381 451 q 281 409 308 451 q 253 310 253 367 z "},"":{"ha":507,"x_min":-14,"x_max":610,"o":"m -14 82 q 37 259 -14 171 q 146 347 88 347 q 175 340 158 347 q 113 230 149 318 q 76 92 76 142 q 126 13 76 13 q 275 124 188 13 q 215 207 236 156 q 193 314 193 258 q 230 438 193 386 q 329 489 267 489 q 425 382 425 489 q 332 135 425 274 q 385 121 357 121 q 468 145 425 121 q 533 221 511 169 l 550 207 q 475 117 524 146 q 375 88 426 88 q 308 101 338 88 q 96 -44 197 -44 q 13 -10 39 -44 q -14 82 -14 25 m 183 585 q 299 649 232 649 q 424 618 335 649 q 568 588 514 588 q 610 592 589 588 q 501 542 565 542 q 377 569 463 542 q 247 596 292 596 q 183 585 211 596 m 253 310 q 300 160 253 215 q 381 374 381 279 q 339 451 381 451 q 281 409 308 451 q 253 310 253 367 z "},"":{"ha":507,"x_min":-14,"x_max":550,"o":"m -14 82 q 37 259 -14 171 q 146 347 88 347 q 175 340 158 347 q 113 230 149 318 q 76 92 76 142 q 126 13 76 13 q 275 124 188 13 q 215 207 236 156 q 193 314 193 258 q 230 438 193 386 q 329 489 267 489 q 425 382 425 489 q 332 135 425 274 q 385 121 357 121 q 468 145 425 121 q 533 221 511 169 l 550 207 q 475 117 524 146 q 375 88 426 88 q 308 101 338 88 q 96 -44 197 -44 q 13 -10 39 -44 q -14 82 -14 25 m 181 647 q 210 692 181 672 q 272 713 240 713 q 314 674 314 713 q 288 628 314 650 q 232 606 263 606 q 181 647 181 606 m 253 310 q 300 160 253 215 q 381 374 381 279 q 339 451 381 451 q 281 409 308 451 q 253 310 253 367 m 381 618 q 410 663 381 643 q 472 683 440 683 q 514 644 514 683 q 488 599 514 621 q 432 576 463 576 q 381 618 381 576 z "},"":{"ha":639,"x_min":35,"x_max":531,"o":"m 35 172 q 297 240 60 240 q 531 228 410 240 q 447 197 499 206 q 286 188 396 188 q 35 172 133 188 m 193 24 q 219 63 193 46 q 274 81 246 81 q 310 47 310 81 q 287 6 310 26 q 238 -14 264 -14 q 193 24 193 -14 m 276 371 q 303 410 276 393 q 357 428 329 428 q 393 394 393 428 q 370 353 393 374 q 321 333 347 333 q 276 371 276 333 z "},"":{"ha":561,"x_min":-90,"x_max":607,"o":"m -90 -87 q 7 -4 -53 -69 q -17 76 -17 28 q 32 247 -17 151 q 161 416 81 343 q 319 489 242 489 q 361 479 344 489 l 383 517 q 446 538 396 538 q 455 537 449 538 q 464 536 461 536 q 453 521 460 532 l 433 490 q 411 454 422 471 q 436 407 436 438 q 409 334 436 394 q 382 232 382 274 q 411 149 382 181 q 479 117 440 117 q 589 222 538 117 l 607 208 q 468 89 556 89 q 393 114 428 89 q 338 186 358 139 q 228 18 292 81 q 94 -44 165 -44 q 43 -33 65 -44 q -72 -89 -26 -89 q -90 -87 -85 -89 m 72 71 q 332 433 204 233 q 199 363 261 429 q 104 219 136 297 q 72 86 72 142 l 72 71 m 103 19 q 125 15 114 15 q 229 77 172 15 q 324 229 286 139 q 315 303 315 261 q 110 26 171 86 l 103 19 z "},"":{"ha":608,"x_min":0,"x_max":653,"o":"m 0 99 q 46 296 0 178 q 122 414 92 414 q 174 386 149 414 q 113 255 144 340 q 81 107 81 169 q 131 14 81 14 q 169 28 149 14 q 210 69 189 42 q 249 123 231 96 q 289 190 268 150 l 325 258 l 358 325 q 383 376 376 365 q 450 340 450 364 q 426 284 450 336 q 380 164 403 232 q 357 56 357 96 q 403 0 357 0 q 518 62 450 0 q 635 225 586 124 l 653 213 q 528 30 608 101 q 374 -42 449 -42 q 276 61 276 -42 q 286 131 276 89 q 104 -42 189 -42 q 29 -1 58 -42 q 0 99 0 40 m 228 731 q 258 774 232 774 q 349 704 296 774 q 403 606 403 635 q 383 569 403 579 q 228 731 331 642 z "},"":{"ha":608,"x_min":0,"x_max":653,"o":"m 0 99 q 46 296 0 178 q 122 414 92 414 q 174 386 149 414 q 113 255 144 340 q 81 107 81 169 q 131 14 81 14 q 169 28 149 14 q 210 69 189 42 q 249 123 231 96 q 289 190 268 150 l 325 258 l 358 325 q 383 376 376 365 q 450 340 450 364 q 426 284 450 336 q 380 164 403 232 q 357 56 357 96 q 403 0 357 0 q 518 62 450 0 q 635 225 586 124 l 653 213 q 528 30 608 101 q 374 -42 449 -42 q 276 61 276 -42 q 286 131 276 89 q 104 -42 189 -42 q 29 -1 58 -42 q 0 99 0 40 m 292 550 q 345 649 292 579 q 436 718 399 718 q 467 675 463 718 q 311 514 364 586 q 292 550 292 524 z "},"":{"ha":608,"x_min":0,"x_max":653,"o":"m 0 99 q 46 296 0 178 q 122 414 92 414 q 174 386 149 414 q 113 255 144 340 q 81 107 81 169 q 131 14 81 14 q 169 28 149 14 q 210 69 189 42 q 249 123 231 96 q 289 190 268 150 l 325 258 l 358 325 q 383 376 376 365 q 450 340 450 364 q 426 284 450 336 q 380 164 403 232 q 357 56 357 96 q 403 0 357 0 q 518 62 450 0 q 635 225 586 124 l 653 213 q 528 30 608 101 q 374 -42 449 -42 q 276 61 276 -42 q 286 131 276 89 q 104 -42 189 -42 q 29 -1 58 -42 q 0 99 0 40 m 242 639 q 304 719 242 676 q 400 761 367 761 q 479 706 433 761 q 525 607 525 651 q 501 564 525 575 q 399 692 472 624 q 256 613 306 658 q 242 639 242 621 z "},"":{"ha":608,"x_min":0,"x_max":653,"o":"m 0 99 q 46 296 0 178 q 122 414 92 414 q 174 386 149 414 q 113 255 144 340 q 81 107 81 169 q 131 14 81 14 q 169 28 149 14 q 210 69 189 42 q 249 123 231 96 q 289 190 268 150 l 325 258 l 358 325 q 383 376 376 365 q 450 340 450 364 q 426 284 450 336 q 380 164 403 232 q 357 56 357 96 q 403 0 357 0 q 518 62 450 0 q 635 225 586 124 l 653 213 q 528 30 608 101 q 374 -42 449 -42 q 276 61 276 -42 q 286 131 276 89 q 104 -42 189 -42 q 29 -1 58 -42 q 0 99 0 40 m 175 647 q 205 692 175 672 q 267 713 235 713 q 308 674 308 713 q 283 628 308 650 q 226 606 257 606 q 175 647 175 606 m 375 618 q 405 663 375 643 q 467 683 435 683 q 508 644 508 683 q 483 599 508 621 q 426 576 457 576 q 375 618 375 576 z "},"":{"ha":540,"x_min":-28,"x_max":585,"o":"m -3 -369 q -15 -360 -3 -369 q -28 -315 -28 -350 q -11 -249 -28 -281 q 24 -197 6 -218 q 88 -148 43 -176 q 158 -107 133 -119 l 242 -64 q 319 190 283 43 q 117 14 211 14 q 39 43 72 14 q 6 126 6 72 q 51 316 6 203 q 128 429 97 429 q 165 419 140 429 q 189 397 189 408 q 129 267 161 357 q 97 125 97 178 q 147 69 97 69 q 235 121 185 69 q 332 247 286 172 q 346 311 339 271 q 417 382 361 382 q 446 378 429 382 q 415 224 446 340 q 338 -11 383 107 q 567 225 494 50 l 585 211 q 322 -49 533 49 q 60 -389 183 -389 q -3 -369 22 -389 m 15 -303 q 25 -331 15 -317 q 53 -344 35 -344 q 93 -322 68 -344 q 156 -241 118 -300 q 228 -97 193 -182 q 144 -144 172 -126 q 81 -187 115 -161 q 31 -242 46 -214 q 15 -303 15 -269 m 339 550 q 392 649 339 579 q 483 718 446 718 q 514 675 510 718 q 358 514 411 586 q 339 550 339 524 z "},"":{"ha":543,"x_min":-132,"x_max":500,"o":"m -131 -336 q -99 -221 -126 -319 l -58 -85 q -22 57 -47 -46 q 18 240 3 160 q 53 445 33 321 q 89 703 72 569 q 95 722 90 717 q 115 726 100 726 q 165 708 149 726 q 182 663 182 689 q 158 487 182 642 q 119 267 133 332 q 224 410 163 350 q 360 471 286 471 q 460 427 421 471 q 500 313 500 383 q 403 78 500 193 q 172 -36 307 -36 q 115 -28 138 -36 q 92 -11 92 -21 q 126 -4 92 -4 q 322 93 235 -4 q 410 300 410 190 q 390 377 410 347 q 331 407 369 407 q 199 333 265 407 q 100 183 133 260 q -71 -382 -22 -335 q -87 -389 -78 -389 q -117 -366 -103 -389 q -131 -336 -132 -343 z "},"":{"ha":540,"x_min":-28,"x_max":585,"o":"m -3 -369 q -15 -360 -3 -369 q -28 -315 -28 -350 q -11 -249 -28 -281 q 24 -197 6 -218 q 88 -148 43 -176 q 158 -107 133 -119 l 242 -64 q 319 190 283 43 q 117 14 211 14 q 39 43 72 14 q 6 126 6 72 q 51 316 6 203 q 128 429 97 429 q 165 419 140 429 q 189 397 189 408 q 129 267 161 357 q 97 125 97 178 q 147 69 97 69 q 235 121 185 69 q 332 247 286 172 q 346 311 339 271 q 417 382 361 382 q 446 378 429 382 q 415 224 446 340 q 338 -11 383 107 q 567 225 494 50 l 585 211 q 322 -49 533 49 q 60 -389 183 -389 q -3 -369 22 -389 m 15 -303 q 25 -331 15 -317 q 53 -344 35 -344 q 93 -322 68 -344 q 156 -241 118 -300 q 228 -97 193 -182 q 144 -144 172 -126 q 81 -187 115 -161 q 31 -242 46 -214 q 15 -303 15 -269 m 175 647 q 205 692 175 672 q 267 713 235 713 q 308 674 308 713 q 283 628 308 650 q 226 606 257 606 q 175 647 175 606 m 375 618 q 405 663 375 643 q 467 683 435 683 q 508 644 508 683 q 483 599 508 621 q 426 576 457 576 q 375 618 375 576 z "},"":{"ha":335,"x_min":-7,"x_max":374,"o":"m -7 81 q 22 226 -7 135 q 100 394 51 318 q 193 471 149 471 q 224 440 224 471 q 188 364 224 424 q 115 228 151 304 q 79 96 79 153 q 95 30 79 47 q 147 13 111 13 q 361 225 256 13 l 374 211 q 259 29 335 94 q 100 -36 183 -36 q 21 -3 49 -36 q -7 81 -7 29 z "},"":{"ha":1110,"x_min":29,"x_max":1149,"o":"m 29 224 q 82 495 29 354 q 217 746 135 636 q 403 927 299 856 q 604 999 507 999 q 688 982 656 999 l 672 982 q 491 908 586 982 q 322 720 396 833 q 200 467 249 607 q 151 204 151 328 q 198 5 151 83 q 338 -74 244 -74 q 540 52 444 -74 q 688 356 635 178 q 740 701 740 535 q 699 878 740 878 q 533 596 647 878 q 467 664 467 611 q 558 834 467 738 q 721 931 650 931 q 879 936 813 936 q 1149 913 1078 936 q 913 863 1131 863 q 854 865 889 863 q 801 867 819 867 q 817 758 817 821 q 799 507 817 622 q 1081 493 988 507 q 888 425 1056 425 q 785 428 838 425 q 693 106 738 213 q 557 -58 649 -1 q 789 -61 629 -61 q 868 -58 806 -61 q 954 -56 931 -56 q 982 -57 976 -56 q 844 -106 969 -89 q 568 -122 718 -122 q 449 -122 531 -122 q 328 -121 368 -121 q 110 -34 190 -121 q 29 224 29 53 z "},"":{"ha":754,"x_min":-36,"x_max":800,"o":"m -36 50 q 22 232 -36 132 q 171 404 79 332 q 349 476 263 476 q 444 418 424 476 q 626 500 538 500 q 713 415 713 500 q 604 236 713 314 q 368 146 496 158 q 363 96 363 122 q 472 -21 363 -21 q 643 50 557 -21 q 783 225 729 121 l 800 213 q 646 14 744 89 q 443 -61 547 -61 q 320 -19 364 -61 q 274 92 276 24 q 164 -27 213 11 q 67 -65 115 -65 q -8 -35 21 -65 q -36 50 -36 -6 m 60 46 q 97 -8 60 -8 q 276 138 161 -8 l 281 158 q 212 215 236 174 q 188 304 188 256 q 192 343 188 325 q 97 192 135 278 q 60 46 60 107 m 242 283 q 290 194 242 228 q 411 386 326 300 q 346 439 399 439 q 274 392 307 439 q 242 283 242 344 m 375 172 q 562 276 472 207 q 651 425 651 346 q 622 457 651 457 q 481 366 557 457 q 375 172 404 275 z "},"":{"ha":744,"x_min":-8,"x_max":750,"o":"m -8 128 q 46 270 -8 226 q 169 314 100 314 q 93 128 93 231 q 148 -11 93 44 q 306 -67 203 -67 q 486 -12 408 -67 q 564 136 564 42 q 520 253 564 201 q 414 343 476 306 l 290 417 q 185 508 229 454 q 142 629 142 561 q 189 794 142 710 q 330 939 236 878 q 538 1000 424 1000 q 683 861 683 1000 q 650 706 683 792 q 576 556 617 619 q 531 615 531 565 q 572 760 531 654 q 613 907 613 867 q 535 967 613 967 q 321 863 413 967 q 229 661 229 758 q 272 559 229 604 q 376 481 315 514 l 497 410 q 601 313 558 374 q 644 175 644 253 q 533 -40 644 40 q 282 -121 422 -121 q 76 -56 160 -121 q -8 128 -8 8 m 467 1188 q 490 1231 467 1219 q 593 1103 519 1171 q 736 1182 686 1136 q 750 1156 750 1174 q 688 1076 750 1118 q 592 1033 625 1033 q 513 1088 558 1033 q 467 1188 467 1143 z "},"":{"ha":479,"x_min":-28,"x_max":518,"o":"m -28 111 q -16 174 -28 149 q 10 209 -4 200 q 41 225 25 218 q 61 236 57 232 q 199 438 150 333 l 199 454 q 215 525 199 501 q 253 549 231 549 q 275 531 275 549 q 271 508 275 528 q 267 469 267 489 q 303 315 267 428 q 339 135 339 203 q 331 67 339 97 q 506 224 433 85 l 518 210 q 324 44 469 67 q 146 -71 281 -71 q 14 -17 56 -71 q -28 111 -28 38 m 35 113 q 66 19 35 60 q 149 -22 97 -22 q 236 46 213 -22 q 135 90 181 57 q 65 161 89 122 q 35 113 35 160 m 71 204 q 243 68 122 94 q 249 133 249 104 q 242 215 249 172 q 222 310 235 258 q 206 385 210 363 q 71 204 135 268 m 190 760 q 214 803 190 792 q 317 675 243 743 q 460 754 410 708 q 474 728 474 746 q 411 648 474 690 q 315 606 349 606 q 236 660 282 606 q 190 760 190 715 z "},"":{"ha":925,"x_min":32,"x_max":985,"o":"m 32 749 q 113 919 32 839 q 297 1000 193 1000 q 406 958 371 1000 q 442 860 442 917 q 395 646 442 814 q 349 399 349 478 q 446 265 349 265 q 608 365 533 265 q 740 611 683 465 q 907 1000 835 1000 q 985 956 943 1000 q 879 735 915 844 q 756 269 843 625 l 728 164 q 697 62 718 125 q 657 -40 676 -1 q 606 -125 638 -78 q 540 -198 575 -172 q 458 -242 506 -224 q 354 -260 410 -260 q 217 -225 271 -260 q 163 -129 163 -190 q 246 -25 163 -53 q 235 -100 235 -62 q 265 -192 235 -158 q 356 -225 296 -225 q 646 168 558 -225 l 671 293 l 704 453 q 403 210 578 210 q 251 375 251 210 q 299 621 251 450 q 346 853 346 792 q 267 961 346 961 q 157 882 197 961 q 117 721 117 803 q 128 653 117 679 q 32 749 32 653 m 524 1117 q 553 1162 524 1142 q 615 1182 583 1182 q 657 1143 657 1182 q 631 1097 657 1119 q 575 1075 606 1075 q 524 1117 524 1075 m 724 1088 q 753 1133 724 1113 q 815 1153 783 1153 q 857 1114 857 1153 q 831 1068 857 1090 q 775 1046 806 1046 q 724 1088 724 1046 z "},"":{"ha":876,"x_min":-35,"x_max":917,"o":"m -35 36 q 72 108 -35 108 q 261 72 139 108 q 532 446 383 201 q 351 431 449 444 l 304 424 q 511 521 310 521 q 574 518 532 521 q 736 847 688 721 q 628 885 704 856 q 478 938 551 915 q 350 961 404 961 q 193 761 193 961 q 199 713 193 731 q 124 813 124 726 q 194 952 124 904 q 392 1000 265 1000 q 650 956 494 1000 q 872 911 806 911 q 917 914 903 911 q 847 865 879 882 q 667 510 781 706 q 814 497 792 497 q 760 459 792 467 q 631 449 729 451 q 328 53 475 194 q 668 -25 575 -25 q 767 -3 724 -25 q 621 -121 725 -121 q 567 -115 597 -121 q 516 -102 538 -108 q 453 -79 494 -96 q 394 -56 411 -62 l 331 -25 q 271 3 282 -1 q 93 -75 171 -75 q 1 -40 36 -75 q -35 36 -35 -6 m 1 39 q 26 -12 1 13 q 86 -37 50 -37 q 214 28 138 -37 q 53 72 106 72 q 1 39 1 72 m 578 1188 q 601 1231 578 1219 q 704 1103 631 1171 q 847 1182 797 1136 q 861 1156 861 1174 q 799 1076 861 1118 q 703 1033 736 1033 q 624 1088 669 1033 q 578 1188 578 1143 z "},"":{"ha":440,"x_min":-99,"x_max":513,"o":"m -99 -318 q -81 -252 -99 -283 q -24 -190 -62 -221 q 51 -135 15 -158 l 146 -76 q 242 -17 206 -40 q 146 160 242 85 q 256 242 214 179 q 297 364 297 304 q 283 417 297 397 q 243 438 269 438 q 191 423 217 438 q 147 390 165 408 q 106 332 129 371 q 70 267 83 293 q 32 186 57 240 l 15 200 q 123 418 69 346 q 263 490 176 490 q 344 459 311 490 q 378 376 378 428 q 331 247 378 306 q 214 154 283 189 q 311 29 286 99 q 465 225 431 119 l 481 208 q 319 3 446 99 q 325 -43 325 -15 q 222 -280 325 -171 q -7 -389 119 -389 q -99 -318 -99 -389 m -60 -303 q -17 -349 -60 -349 q 138 -263 49 -349 q 240 -49 228 -178 l 154 -101 l 69 -154 q 6 -199 40 -172 q -44 -251 -29 -226 q -60 -303 -60 -276 m 229 718 q 253 761 229 750 q 356 633 282 701 q 499 713 449 667 q 513 686 513 704 q 450 606 513 649 q 354 564 388 564 q 275 619 321 564 q 229 718 229 674 z "},"":{"ha":546,"x_min":-332,"x_max":547,"o":"m -332 -175 q -249 -69 -332 -97 q -260 -143 -260 -107 q -228 -236 -260 -199 q -160 -274 -197 -274 q -114 -263 -136 -274 q -72 -227 -92 -253 q -37 -176 -53 -201 q -3 -106 -21 -151 q 25 -26 14 -60 q 53 71 36 8 l 78 169 l 104 276 l 131 385 q 44 375 67 379 q 147 453 46 443 q 208 661 178 574 q 279 831 238 749 q 375 957 321 914 q 494 1000 429 1000 q 534 988 521 1000 q 547 938 547 975 q 461 693 547 832 q 254 457 375 554 q 347 451 290 456 q 433 446 404 446 q 472 450 458 446 q 375 388 429 388 q 315 388 364 388 q 222 389 265 389 l 197 389 l 146 182 q 102 19 125 101 q 60 -111 79 -64 q 17 -202 40 -158 q -33 -267 -7 -246 q -89 -301 -58 -289 q -158 -312 -119 -312 q -283 -274 -233 -312 q -332 -175 -332 -236 m 226 482 q 406 688 328 567 q 483 871 483 808 q 454 907 483 907 q 340 793 400 907 q 226 482 279 679 z "},"":{"ha":282,"x_min":0,"x_max":283,"o":"m 0 639 q 63 719 0 676 q 158 761 125 761 q 238 706 192 761 q 283 607 283 651 q 260 564 283 575 q 157 692 231 624 q 14 613 64 658 q 0 639 0 621 z "},"":{"ha":282,"x_min":0,"x_max":283,"o":"m 0 718 q 24 761 0 750 q 126 633 53 701 q 269 713 219 667 q 283 686 283 704 q 221 606 283 649 q 125 564 158 564 q 46 619 92 564 q 0 718 0 674 z "},"":{"ha":590,"x_min":168,"x_max":443,"o":"m 168 625 q 219 729 168 678 q 338 781 269 781 q 443 706 443 781 q 390 601 443 653 q 268 550 336 550 q 168 625 168 550 m 222 635 q 238 596 222 614 q 281 578 253 578 q 356 619 319 578 q 392 697 392 660 q 376 733 392 718 q 331 749 360 749 q 256 711 290 749 q 222 635 222 674 z "},"":{"ha":425,"x_min":0,"x_max":426,"o":"m 0 585 q 115 649 49 649 q 241 618 151 649 q 385 588 331 588 q 426 592 406 588 q 318 542 382 542 q 194 569 279 542 q 64 596 108 596 q 0 585 28 596 z "},"":{"ha":940,"x_min":35,"x_max":853,"o":"m 35 158 q 141 248 40 224 q 426 272 242 272 q 666 260 546 272 q 853 247 786 247 q 671 185 781 185 q 506 184 600 185 q 380 183 413 183 q 293 183 347 183 q 221 181 239 182 q 166 176 203 179 q 103 169 129 172 q 35 158 78 165 z "},"":{"ha":1164,"x_min":49,"x_max":1071,"o":"m 49 158 q 181 248 56 224 q 538 272 307 272 q 838 260 688 272 q 1071 247 988 247 q 844 185 981 185 q 638 184 756 185 q 481 183 521 183 q 372 183 440 183 q 281 181 304 182 q 213 176 258 179 q 135 168 167 172 l 49 158 z "},"":{"ha":200,"x_min":175,"x_max":297,"o":"m 175 961 q 185 988 175 976 q 210 1000 196 1000 q 249 926 215 976 q 294 851 283 876 q 297 839 297 843 q 271 800 297 815 q 233 853 263 813 q 190 919 204 893 q 175 961 175 944 z "},"":{"ha":174,"x_min":172,"x_max":294,"o":"m 172 839 q 175 851 172 843 q 220 926 186 876 q 260 1000 254 976 q 284 988 274 1000 q 294 961 294 976 q 280 919 294 944 q 236 853 265 893 q 199 800 207 813 q 172 839 172 815 z "},"":{"ha":272,"x_min":-14,"x_max":106,"o":"m -14 -71 q 14 26 -14 -25 q 71 78 42 78 q 95 66 85 78 q 106 39 106 54 q 82 12 93 26 q 64 -14 71 -3 q 48 -42 57 -25 q 35 -68 39 -60 l 21 -96 q 10 -122 11 -115 q -14 -71 -14 -108 z "},"":{"ha":353,"x_min":175,"x_max":450,"o":"m 175 961 q 185 988 175 976 q 210 1000 196 1000 q 249 926 215 976 q 294 851 283 876 q 297 839 297 843 q 271 800 297 815 q 233 853 263 813 q 190 919 204 893 q 175 961 175 944 m 328 961 q 338 988 328 976 q 363 1000 349 1000 q 402 926 368 976 q 447 851 436 876 q 450 839 450 843 q 424 800 450 815 q 386 853 415 813 q 342 919 357 893 q 328 961 328 944 z "},"":{"ha":326,"x_min":172,"x_max":447,"o":"m 172 839 q 175 851 172 843 q 220 926 186 876 q 260 1000 254 976 q 284 988 274 1000 q 294 961 294 976 q 280 919 294 944 q 236 853 265 893 q 199 800 207 813 q 172 839 172 815 m 325 839 q 328 851 325 843 q 373 926 339 876 q 413 1000 407 976 q 437 988 426 1000 q 447 961 447 976 q 433 919 447 944 q 389 853 418 893 q 351 800 360 813 q 325 839 325 815 z "},"":{"ha":425,"x_min":-14,"x_max":258,"o":"m -14 -71 q 14 26 -14 -25 q 71 78 42 78 q 95 66 85 78 q 106 39 106 54 q 82 12 93 26 q 64 -14 71 -3 q 48 -42 57 -25 q 35 -68 39 -60 l 21 -96 q 10 -122 11 -115 q -14 -71 -14 -108 m 139 -71 q 167 26 139 -25 q 224 78 194 78 q 248 66 238 78 q 258 39 258 54 q 235 12 246 26 q 217 -14 224 -3 q 201 -43 210 -25 l 188 -68 q 174 -96 183 -76 q 163 -122 165 -115 q 139 -71 139 -108 z "},"":{"ha":529,"x_min":99,"x_max":521,"o":"m 99 -37 q 167 226 99 32 l 243 447 q 100 428 167 440 q 143 499 103 478 q 218 521 183 521 q 244 520 228 521 q 271 519 261 519 q 442 819 383 819 q 459 810 451 819 q 467 788 467 800 q 365 511 467 743 q 521 497 511 497 q 438 453 489 453 q 339 451 371 453 q 99 -37 186 107 z "},"":{"ha":582,"x_min":53,"x_max":575,"o":"m 53 307 q 249 404 58 401 l 276 478 q 133 465 210 476 l 86 458 q 293 556 92 556 l 306 556 q 463 819 410 819 q 480 810 472 819 q 488 788 488 800 q 403 547 488 744 q 460 538 421 544 q 525 527 499 531 q 575 524 551 524 q 492 479 543 479 q 372 478 436 478 l 336 400 q 438 385 368 397 q 542 372 507 374 q 458 328 510 328 q 304 326 385 326 q 119 -37 181 58 q 188 226 119 32 l 221 325 q 100 314 167 324 l 53 307 z "},"":{"ha":336,"x_min":56,"x_max":219,"o":"m 56 217 q 86 281 56 250 q 153 311 117 311 q 199 293 178 311 q 219 250 219 275 q 188 192 219 221 q 118 164 156 164 q 74 177 92 164 q 56 217 56 190 z "},"":{"ha":731,"x_min":11,"x_max":561,"o":"m 11 24 q 38 63 11 46 q 92 81 64 81 q 128 47 128 81 q 105 6 128 26 q 56 -14 82 -14 q 11 24 11 -14 m 228 24 q 254 63 228 46 q 308 81 281 81 q 344 47 344 81 q 322 6 344 26 q 272 -14 299 -14 q 228 24 228 -14 m 444 24 q 471 63 444 46 q 525 81 497 81 q 561 47 561 81 q 538 6 561 26 q 489 -14 515 -14 q 444 24 444 -14 z "},"":{"ha":1371,"x_min":111,"x_max":1306,"o":"m 111 -121 q 417 354 204 -28 q 708 938 631 736 q 754 979 715 958 q 825 1000 793 1000 q 625 601 799 933 q 368 135 451 268 q 228 -56 289 8 q 111 -121 167 -121 m 139 632 q 198 831 139 733 q 340 929 257 929 q 425 890 393 929 q 457 785 457 850 q 397 584 457 686 q 253 482 336 482 q 168 525 197 482 q 139 632 139 568 m 215 621 q 261 535 215 535 q 347 623 308 535 q 385 796 385 711 q 340 879 385 879 q 250 790 285 879 q 215 621 215 701 m 588 150 q 647 349 588 251 q 789 447 706 447 q 874 408 842 447 q 906 303 906 368 q 845 102 906 204 q 701 0 785 0 q 617 43 646 0 q 588 150 588 86 m 664 140 q 710 53 664 53 q 795 141 757 53 q 833 314 833 229 q 789 397 833 397 q 699 309 733 397 q 664 140 664 221 m 988 150 q 1047 349 988 251 q 1189 447 1106 447 q 1274 408 1242 447 q 1306 303 1306 368 q 1245 102 1306 204 q 1101 0 1185 0 q 1017 43 1046 0 q 988 150 988 86 m 1064 140 q 1110 53 1064 53 q 1195 141 1157 53 q 1233 314 1233 229 q 1189 397 1233 397 q 1099 309 1133 397 q 1064 140 1064 221 z "},"":{"ha":396,"x_min":8,"x_max":279,"o":"m 8 219 q 152 313 76 249 q 272 439 228 376 q 279 408 279 428 q 44 204 279 326 l 103 163 q 166 128 122 149 q 269 83 210 107 q 229 61 250 61 q 99 119 179 61 q 8 219 19 178 z "},"":{"ha":422,"x_min":71,"x_max":342,"o":"m 71 408 q 78 439 71 428 q 198 313 122 376 q 342 219 274 249 q 251 119 331 178 q 121 61 171 61 q 81 83 100 61 q 183 128 142 107 q 246 163 225 149 l 306 204 q 71 408 71 326 z "},"":{"ha":372,"x_min":94,"x_max":426,"o":"m 94 647 q 108 682 94 668 q 399 996 338 885 q 417 976 417 993 q 409 945 417 972 q 385 851 401 918 q 353 700 369 783 l 376 700 q 426 707 392 700 q 356 658 392 658 l 346 658 q 317 436 317 513 q 250 472 250 440 q 285 658 250 499 q 271 659 279 658 q 258 660 263 660 l 235 660 q 94 647 150 660 m 171 701 q 231 704 204 704 q 251 703 238 704 q 269 703 264 703 l 296 703 l 303 735 q 333 860 319 818 l 272 800 q 171 701 183 715 z "},"":{"ha":953,"x_min":25,"x_max":876,"o":"m 25 215 q 178 310 29 300 q 189 372 181 331 l 100 361 l 53 354 q 208 450 57 438 q 433 835 278 672 q 743 999 589 999 q 871 879 871 999 q 817 688 871 793 q 710 583 764 583 q 667 615 682 583 q 767 757 718 674 q 815 894 815 840 q 747 957 815 957 q 517 803 639 957 q 329 449 394 649 q 449 438 369 446 q 563 428 528 429 q 501 389 540 396 q 308 379 461 382 q 294 311 304 361 q 419 299 338 308 q 535 289 500 290 q 473 251 513 257 q 285 242 433 244 q 283 194 283 225 q 332 3 283 81 q 479 -74 381 -74 q 693 14 586 -74 q 857 225 800 101 l 876 211 q 690 -28 801 64 q 446 -121 578 -121 q 240 -22 308 -121 q 172 218 172 76 l 172 235 q 72 222 138 232 l 25 215 z "},"":{"ha":774,"x_min":196,"x_max":824,"o":"m 196 944 q 265 985 197 975 q 464 994 332 994 l 571 994 q 617 968 603 994 q 632 868 632 942 q 627 769 632 836 q 622 693 622 703 q 676 805 640 724 q 742 937 711 886 q 800 988 772 988 q 819 983 807 988 l 824 979 q 776 797 804 932 q 747 593 747 661 q 751 561 747 574 l 757 544 q 712 558 724 544 q 700 608 700 572 q 746 876 700 700 q 617 597 689 779 q 604 592 611 592 q 575 661 575 592 q 579 778 575 692 q 583 896 583 864 l 583 901 q 454 606 486 667 q 392 544 422 544 l 419 607 l 456 685 l 511 806 l 565 929 q 572 950 572 943 q 558 961 572 961 q 385 953 444 961 q 271 560 271 665 q 274 544 271 553 q 217 586 217 544 q 259 735 217 615 q 347 951 301 856 q 203 942 256 951 l 196 944 z "},"":{"ha":458,"x_min":0,"x_max":458,"o":"m 0 458 l 458 458 l 458 0 l 0 0 l 0 458 z "},"":{"ha":769,"x_min":-94,"x_max":808,"o":"m -94 -267 q -33 51 -94 -160 q 115 474 28 263 q 310 842 203 685 q 500 1000 418 1000 q 547 940 547 1000 q 433 673 547 826 q 176 419 318 519 q 153 358 161 386 q 185 324 175 350 q 310 206 221 206 q 483 296 393 206 q 553 422 515 372 q 628 471 592 471 q 658 440 658 471 q 622 364 658 424 q 550 228 586 304 q 514 96 514 153 q 530 30 514 47 q 582 13 546 13 q 796 225 689 13 l 808 211 q 694 29 769 94 q 535 -36 618 -36 q 456 -3 483 -36 q 428 81 428 29 q 461 239 428 142 q 286 169 376 169 q 190 192 239 169 q 196 103 196 153 q 165 -127 196 -12 q 84 -315 135 -242 q -18 -389 33 -389 q -71 -362 -47 -389 q -94 -267 -94 -335 m -8 -256 q 18 -322 -8 -322 q 109 -174 58 -322 q 160 107 160 -25 q 118 261 160 226 q -8 -256 -8 -104 m 199 476 q 408 716 324 592 q 493 888 493 840 q 474 907 493 907 q 349 787 422 907 q 199 476 275 667 m 644 646 q 678 696 644 674 q 746 718 711 718 q 792 675 792 718 q 763 624 792 649 q 701 600 735 600 q 644 646 644 600 z "},"":{"ha":761,"x_min":-94,"x_max":917,"o":"m -94 -267 q -33 51 -94 -160 q 115 474 28 263 q 310 842 203 685 q 500 1000 418 1000 q 547 940 547 1000 q 433 673 547 826 q 176 419 318 519 q 153 358 161 386 q 185 315 179 350 q 313 175 201 175 q 454 221 376 175 q 572 551 486 364 q 744 869 657 739 q 871 1000 831 1000 q 903 965 890 1000 q 917 897 917 931 q 803 580 917 793 q 547 250 689 367 q 529 110 529 169 q 590 3 529 3 q 694 67 642 3 q 789 225 747 132 l 811 214 q 550 -42 692 -42 q 439 101 439 -42 q 447 185 439 139 q 293 142 369 142 q 193 168 240 142 q 196 103 196 124 q 165 -127 196 -12 q 84 -315 135 -242 q -18 -389 33 -389 q -71 -362 -47 -389 q -94 -267 -94 -335 m -8 -256 q 18 -322 -8 -322 q 109 -174 58 -322 q 160 100 160 -26 q 117 256 160 210 q -8 -256 -8 -110 m 199 476 q 408 716 324 592 q 493 888 493 840 q 474 907 493 907 q 349 787 422 907 q 199 476 275 667 m 560 297 q 774 601 674 413 q 874 865 874 789 q 864 888 874 888 q 787 798 844 888 q 663 565 729 708 q 560 297 596 422 z "}}}
